<!--?xml version="1.0" encoding="utf-8"?-->
<svg version="1.1" x="0px" y="0px" id="iconz0628031512540024" viewBox="0 0 512 512" xmlns="http://www.w3.org/2000/svg" style="enable-background:new 0 0 512 512;" xml:space="preserve"><style type="text/css">
.baseF{fill:#FFFFFF}
.baseB{fill:#232256}
.eyeF{fill:#FFFFFF}
.eyeB{fill:#232256}
.eyeT{fill:#BDC7D6}
.hairF{fill:#FFFFFF}
.hairB{fill:#232256}
.hairU{fill:#5E7AA5}
.hairT{fill:#BDC7D6}
.noseF{fill:#FFFFFF}
.noseB{fill:#232256}
.noseU{fill:#5E7AA5}
.mayugeB{fill:#232256}
.mayugeU{fill:#5E7AA5}
.mayugeT{fill:#BDC7D6}
.mayugeF{fill:#FFFFFF}
.mouthF{fill:#FFFFFF}
.mouthB{fill:#232256}
.mouthT{fill:#BDC7D6}
.mouthU{fill:#5E7AA5}
.hatF{fill:#FFFFFF}
.hatB{fill:#232256}
.hatU{fill:#5E7AA5}
.hatT{fill:#BDC7D6}
.higeU{fill:#5E7AA5}
.higeB{fill:#232256}
.higeF{fill:#FFFFFF}
.bodyF{fill:#FFFFFF}
.bodyB{fill:#232256}
.bodyU{fill:#5E7AA5}
.bodyT{fill:#BDC7D6}
.bodyS{fill:#8DA6C9}
.bodyH{fill:#FFFFFF}
.glassF{fill:#FFFFFF}
.glassB{fill:#232256}
.glassT{fill:#BDC7D6}
.glassU{fill:#5E7AA5}
.kirakiraF{fill:#FFFFFF}
.kirakiraB{fill:#232256}
.kirakiraU{fill:#5E7AA5}
.kirakiraT{fill:#BDC7D6}
.kirakiraH{fill:#FFFFFF}
.backF{fill:#FFFFFF}
.backB{fill:#232256}
.backU{fill:#5E7AA5}
.backS{fill:#8DA6C9}
.backA{fill:#FFE38B}
.backG{fill:#EEEEEF}
.backC{fill:#19DB9F}
.backD{fill:#DBBCA1}
</style>
<g class="icosvg">
<g>
	<path class="bodyU" d="M368.753,391.225c-18.534-13.291-31.392-16.772-31.392-16.772c-11.7,65.848-151.055,65.848-162.755,0   c0,0-12.858,3.48-31.392,16.772c-37.193,26.667-94.132,80.1-94.132,135.028c0,46.139,0,126.04,0,126.04   c103.139,0,310.69,0,413.803,0c0,0,0-79.901,0-126.04C462.885,471.325,405.946,417.892,368.753,391.225z"></path>
	<path class="bodyB" d="M468.162,645.416c0-0.001,0-42.134,0-73.971c-0.002-37.185-3.753-66.338-12.521-91.031   c-17.803-59.261-92.53-104.337-120.321-114.567c-7.697-4.138-13.34-7.081-21.75-8.819c-10.836-2.237-25.767-2.671-57.581-3.121   c-28.28,0.394-43.249,0.797-53.807,2.436c-10.34,1.571-16.569,4.656-25.539,9.507c-28.554,10.598-102.559,55.579-120.313,114.564   c-8.77,24.692-12.521,53.844-12.523,91.03c0,31.837,0,73.97,0,73.971c0.108,6.87,10.424,6.993,10.554,0   c1.978-70.107-13.68-162.705,51.347-220.795c25.665-23.831,48.614-37.409,75.367-49.171c7.644-4.054,11.719-6.428,19.478-8.089   c9.103-1.924,23.696-2.48,55.432-2.898c28.204,0.377,42.879,0.843,52.174,2.309c9.705,1.552,13.891,3.976,22.737,8.679   c27.548,10.121,98.323,53.327,114.8,108.498c8.206,23.079,11.917,50.998,11.914,87.496c0,31.837,0,73.97,0,73.971   C457.665,652.233,468.054,652.441,468.162,645.416L468.162,645.416z"></path>
	<path class="bodyU" d="M347.247,442.295c0,0,56.904-21.79,46.364-67.842c-8.311-36.309-72.122-43.43-137.627-43.43   s-129.316,7.12-137.627,43.43c-10.54,46.052,46.364,67.842,46.364,67.842"></path>
	<path class="bodyB" d="M392.266,359.059c-25.992-33.215-94.598-32.456-136.281-33.313c-32.958,0.012-65.576,1.757-91.547,8.258   c-18.572,4.97-33.829,10.881-44.736,25.055c-11.452,15.424-9.66,39.605,0.332,54.444c7.365,11.681,18.029,19.967,26.809,25.468   c8.793,5.489,15.773,8.167,15.991,8.253c6.573,2.346,10.177-7.257,3.779-9.854v-0.001c-0.075-0.017-11.594-4.52-22.729-13.357   c-5.572-4.409-11.027-9.881-15.009-16.276c-7.758-11.822-9.445-30.185-0.637-42.471c23.263-28.851,89.751-28.212,127.747-28.966   c41.338,0.919,103.856,0.233,127.747,28.965c19.46,31.543-11.276,61.37-38.372,72.104h0c-6.436,2.593-2.741,12.226,3.775,9.855   h-0.001c0.291-0.123,12.6-4.818,25.206-14.705c6.298-4.953,12.691-11.225,17.593-19.016   C401.917,398.664,403.724,374.48,392.266,359.059z"></path>
	<path class="bodyB" d="M238.79,532.291c-0.149-5.912-3.321-9.717-7.368-11.438c0-28.948,0-68.526,0-68.526   c-0.108-6.905-10.433-6.961-10.553,0v68.526c-4.047,1.721-7.22,5.526-7.37,11.438c0.15,5.91,3.323,9.715,7.37,11.436v6.973   c0.108,6.904,10.433,6.961,10.553,0c0,0,0-2.614,0-6.973C235.468,542.005,238.64,538.201,238.79,532.291z"></path>
	<path class="bodyB" d="M299.32,532.291c-0.149-5.911-3.322-9.717-7.368-11.438c0-28.948,0-68.527,0-68.527   c-0.108-6.905-10.433-6.961-10.553,0v68.526c-4.047,1.721-7.22,5.526-7.37,11.438c0.15,5.91,3.323,9.715,7.37,11.436v6.973   c0.108,6.904,10.433,6.961,10.553,0c0,0,0-2.614,0-6.973C295.997,542.005,299.169,538.201,299.32,532.291z"></path>
</g>

<g>
	<path class="baseF" d="M370.827,211.355h-1.087c-4.5-69.281-37.913-124.791-113.738-124.791s-109.237,55.509-113.737,124.791h-1.088
		c-14.836-8.77-36.375,8.077-32.986,28.425c7.12,42.713,9.942,53.302,22.627,59.714c6.478,3.272,12.413,3.389,12.413,3.389h7.903
		c4.228,26.864,15.788,46.294,22.941,63.427c9.731,23.287,53.016,45.431,81.928,45.431s72.197-22.144,81.928-45.431
		c7.153-17.133,18.712-36.562,22.941-63.427h7.903c0,0,5.934-0.117,12.413-3.389c12.689-6.413,15.506-17.002,22.627-59.714
		C407.202,219.431,385.662,202.584,370.827,211.355z"></path>
	<path class="baseB" d="M400.194,213.068c-5.491-5.662-12.816-9.342-20.597-9.373c-1.734-0.002-3.483,0.225-5.213,0.633
		c-2.782-29.967-10.992-57.396-26.259-78.888c-9.609-13.516-22.029-24.635-37.387-32.295c-15.356-7.669-33.588-11.864-54.736-11.859
		c-21.15-0.005-39.382,4.191-54.738,11.859c-23.06,11.496-39.403,30.75-49.784,54.244c-7.547,17.062-12.016,36.394-13.922,56.927
		c-1.711-0.398-3.443-0.623-5.159-0.621c-7.786,0.03-15.11,3.71-20.604,9.373c-5.482,5.674-9.237,13.563-9.244,22.423
		c0,1.692,0.138,3.42,0.436,5.168l-0.002-0.012c3.584,21.41,6.03,34.84,9.466,44.398c1.727,4.772,3.764,8.644,6.443,11.82
		c2.67,3.183,5.925,5.522,9.541,7.338c7.608,3.813,14.234,3.928,14.693,3.956c1.427,0.028,2.723-0.525,3.691-1.427
		c3.117,9.816,6.197,19.28,9.262,28.118c6.352,18.293,12.586,33.977,19.17,45.328c1.357,2.292,3.209,4.167,5.477,6.127
		c3.97,3.38,9.312,6.837,15.497,10.28c9.27,5.147,20.386,10.179,31.048,13.983c5.332,1.901,10.547,3.492,15.394,4.627
		c4.854,1.127,9.316,1.816,13.334,1.823c6.098-0.021,13.324-1.575,21.216-3.961c11.796-3.598,24.886-9.162,35.859-15.005
		c5.487-2.925,10.434-5.913,14.468-8.834c4.036-2.977,7.163-5.651,9.204-9.04c6.584-11.351,12.818-27.035,19.17-45.326
		c3.066-8.841,6.148-18.302,9.265-28.12c0.97,0.905,2.269,1.458,3.696,1.43c0.459-0.03,7.078-0.145,14.686-3.959
		c3.616-1.816,6.872-4.155,9.541-7.338c4.027-4.8,6.57-11.009,8.869-19.779c2.295-8.805,4.362-20.386,7.041-36.438l0.005-0.028
		c0.279-1.727,0.415-3.441,0.415-5.128C409.428,226.633,405.676,218.742,400.194,213.068z M398.602,238.938
		c-3.534,21.284-6.056,34.498-8.979,42.513c-1.453,4.017-2.946,6.663-4.587,8.611c-1.65,1.943-3.504,3.33-6.232,4.72
		c-2.679,1.355-5.32,2.081-7.247,2.449c-0.961,0.183-1.741,0.279-2.252,0.326l-0.555,0.045l-0.082,0.005v-0.002l-0.021,0.002v0.002
		c-0.227,0.005-0.42,0.108-0.638,0.141c2.409-7.69,4.838-15.499,7.308-23.449c0.862-2.784-0.691-5.742-3.473-6.605
		c-2.784-0.865-5.742,0.689-6.605,3.473l-0.002-0.002c-6.661,21.438-13.043,42.211-19.289,60.225
		c-6.234,18.005-12.387,33.288-18.323,43.481c-0.312,0.577-1.446,1.922-3.206,3.403c-3.082,2.641-7.987,5.876-13.77,9.082
		c-8.686,4.828-19.399,9.68-29.466,13.268c-5.032,1.793-9.905,3.274-14.25,4.289c-4.338,1.02-8.17,1.554-10.931,1.547
		c-4.228,0.021-10.854-1.268-18.143-3.504c-10.973-3.335-23.634-8.707-33.97-14.222c-5.168-2.752-9.766-5.548-13.24-8.065
		c-3.471-2.463-5.81-4.884-6.272-5.798c-5.937-10.193-12.087-25.477-18.321-43.481c-6.246-18.014-12.628-38.787-19.291-60.225
		c-0.867-2.784-3.825-4.338-6.607-3.471c-2.784,0.865-4.338,3.823-3.471,6.607c2.47,7.95,4.898,15.759,7.308,23.449
		c-0.218-0.033-0.41-0.136-0.635-0.141v-0.005l-0.021-0.002l0,0c-0.302,0.002-5.17-0.288-10.141-2.822
		c-2.728-1.39-4.582-2.777-6.232-4.72c-2.454-2.885-4.61-7.502-6.727-15.645c-2.121-8.107-4.181-19.526-6.844-35.508l-0.002-0.012
		c-0.195-1.158-0.286-2.29-0.286-3.408c-0.007-5.801,2.494-11.17,6.279-15.089c3.776-3.933,8.737-6.183,13.015-6.152
		c1.535,0.005,2.979,0.373,4.39,0.93c-0.206,4.263-0.342,8.557-0.342,12.898c0,2.913,2.362,5.278,5.278,5.278
		c2.913,0,5.278-2.365,5.278-5.278h-0.002c-0.019-37.709,8.02-72.047,25.472-96.518c8.73-12.255,19.765-22.106,33.504-28.971
		c13.744-6.855,30.255-10.744,50.025-10.748c19.767,0.005,36.279,3.893,50.023,10.748c20.585,10.294,35.191,27.321,44.848,49.076
		c9.633,21.731,14.135,48.145,14.128,76.413c0,2.913,2.363,5.278,5.278,5.278c2.913,0,5.278-2.365,5.278-5.278
		c-0.002-4.341-0.145-8.632-0.352-12.898c1.411-0.558,2.855-0.926,4.392-0.93c4.275-0.03,9.232,2.22,13.005,6.15
		c3.785,3.921,6.286,9.288,6.279,15.091C398.881,236.613,398.792,237.759,398.602,238.938z"></path>
</g>


<g>
	<path class="hairB" d="M378.61,95.09c-10.884-29.932-33.561-35.374-33.561-35.374s13.605-1.814,0-19.955   s-49.358-16.327-49.358-16.327s4.913-15.42-23.184-18.141c-91.59,3.628-114.519,76.191-114.519,76.191s-29.739,3.578-36.8,37.138   c-7.062,33.56,0.728,87.127,2.738,92.882c0.804,2.304,4.869,6.497,9.458,10.868c2.729,5.543,5.049,13.002,6.734,22.283   c0.872,4.805,1.993,9.511,3.179,13.855c1.412,5.174,8.967,4.468,9.418-0.875l2.607-30.864c4.801-9.976,10.415-25.504,10.788-41.072   c0.655-27.306,37.441-48.885,89.89-48.885c61.52,0,72.722,21.769,78.164,42.306c5.442,20.537,19.439,20.324,19.439,20.324l0,0   l4.915,58.191c0.451,5.344,8.006,6.049,9.418,0.875c1.186-4.344,2.307-9.05,3.179-13.855c3.415-18.812,9.434-30.175,16.192-33.151   C387.308,211.504,389.494,125.023,378.61,95.09z"></path>
</g>

<g>
	<path class="mouthB" d="M313.671,332.324c0.895-3.889-3.611-6.621-6.727-4.129c-9.477,7.581-26.986,14.858-50.94,14.982
		c-23.954-0.124-41.463-7.401-50.94-14.982c-3.116-2.493-7.622,0.24-6.727,4.129c5.671,24.638,27.667,42.5,57.668,42.5
		C286.004,374.824,308,356.962,313.671,332.324z"></path>
	<path class="mouthF" d="M255.971,349.177c-19.343-0.101-33.397-4.493-42.728-8.967c1.075,8.722,10.899,16.862,42.76,16.862
		c31.862,0,41.686-8.141,42.76-16.863C289.428,344.684,275.357,349.076,255.971,349.177z"></path>
</g>


<g>
	<path class="noseB" d="M248.98,301.597c1.884,0,1.561,3.091,1.842,4.671c0.614,3.436,4.73,2.988,8.142,2.988
		c6.035,0,3.712,4.973,0,4.973c-3.715,0-12.537,1.062-12.537-2.653S245.066,301.597,248.98,301.597z"></path>
</g>


<g>
	<g>
		<path class="eyeB" d="M212.78,263.765c-9.178,0-12.702,8.581-13.916,13.06c-0.363,1.339,0.632,2.652,2.02,2.652h20.852
			c1.18,0,2.131-0.964,2.095-2.143C223.698,273.034,222.308,263.765,212.78,263.765z"></path>
		<path class="eyeB" d="M299.227,263.765c9.178,0,12.702,8.581,13.916,13.06c0.363,1.339-0.632,2.652-2.02,2.652h-20.852
			c-1.18,0-2.131-0.964-2.095-2.143C288.309,273.034,289.698,263.765,299.227,263.765z"></path>
	</g>
</g>


<g>
	<g>
		<path class="mayugeB" d="M186.321,247.653c10.586-7.618,34.99-8.697,50.736,2.259c0.828,0.576,1.994-0.186,1.75-1.164
			c-3.92-15.691-40.945-23.41-53.824-2.324C184.442,247.31,185.479,248.259,186.321,247.653z"></path>
		<path class="mayugeB" d="M325.68,247.653c-10.586-7.618-34.99-8.697-50.736,2.259c-0.828,0.576-1.994-0.186-1.75-1.164
			c3.92-15.691,40.945-23.41,53.824-2.324C327.559,247.31,326.522,248.259,325.68,247.653z"></path>
	</g>
</g>


<g>
	<path class="baseF" d="M108.201,533.344c40.732-34.165,89.236-68.948,89.236-68.948c5.883-8.091,13.898-17.454,19.078-28.177
		c2.234-4.624,2.484-9.956,0.527-14.702c-1.922-4.662-4.202-11.06-6.558-19.573c-5.32-19.24,3.213-30.846,14.14-22.097
		c10.924,8.749,25.062,28.523,41.77,15.67c14.053-10.809,52.055-38.559,64.908-42.415s16.671,12.021,3.818,22.945
		c-9.509,8.081-25.962,19.92-33.881,25.533c-2.123,1.505-2.224,4.498-0.377,6.328c13.997,13.866,15.08,51.668,5.763,62.318
		c-8.763,10.013-63.902,43.242-63.902,43.242S142.931,639.452,92.35,642.426c-50.58,2.977-35.477-29.501-36.659-56.452"></path>
	<path class="kirakiraB" d="M344.92,351.533c-11.474-10.849-25.023,1.546-36.622,7.902c-16.222,10.306-35.783,24.72-45.121,31.9
		c-15.795,11.461-27.271-13.053-40.229-18.61c-18.044-6.391-22.442,17.485-17.55,30.625c2.638,11.37,6.454,16.438,7.688,24.867
		c-1.829,12.391-12.943,22.624-19.395,32.374c-5.906,4.256-50.692,36.68-88.882,68.71c-5.237,4.246,1.547,12.619,6.783,8.087
		l-0.001-0.001c27.62-23.088,55.553-44.258,80.747-62.765c3.611-2.642,6.365-4.642,8.864-6.435
		c6.753-10.38,21.655-24.433,22.438-39.97c0.587-10.621-17.067-36.624-6.084-46.059c4.04,0.803,6.514,4.506,10.09,7.476
		c30.531,32.122,43.559,5.96,74.626-13.573c5.919-3.144,35.383-26.499,35.511-14.807c-0.115,15.673-43.041,30.68-43.505,43.578
		c1.11,8.202,8.75,11.185,10.434,21.193c3.262,12.193,4.795,30.219-2.059,40.729c-17.71,15.983-44.835,30.18-64.066,43.438
		c-19.37,22.655-97.076,120.105-146.545,126.967c-41.993,3.505-30.858-21.662-31.077-51.41c-0.14-6.851-10.977-6.379-10.544,0.451
		c0.651,13.188-3.172,27.658,0.083,41.013c3.965,15.95,19.313,20.914,35.672,20.679c54.877-0.071,129.202-94.899,160.085-130.394
		c7.064-4.184,38.218-23.625,49.727-31.982c9.452-6.765,18.083-12.174,20.281-24.069c3.759-18.238,1.646-41.724-10.846-56.366
		C319.84,392.256,359.825,375.453,344.92,351.533z"></path>
</g>

</g></svg>