<?xml version="1.0" encoding="utf-8"?>
<!-- Generator: Adobe Illustrator 25.0.1, SVG Export Plug-In . SVG Version: 6.00 Build 0)  -->
<svg version="1.1" id="图层_1" xmlns="http://www.w3.org/2000/svg" xmlns:xlink="http://www.w3.org/1999/xlink" x="0px" y="0px"
	 viewBox="0 0 1417.3 1133.9" style="enable-background:new 0 0 1417.3 1133.9;" xml:space="preserve">
<style type="text/css">
	.st0{fill:#366389;}
	.st1{fill:#FFFFFF;}
	.st2{fill:#E9B636;}
	.st3{fill:#999999;}
	.st4{fill:#B4B3B3;}
	.st5{fill:#EEBB1A;}
	.st6{fill:#346187;}
	.st7{fill:url(#SVGID_1_);stroke:#FFFFFF;stroke-width:20;stroke-miterlimit:10;}
	.st8{fill:#2660A9;stroke:#FFFFFF;stroke-width:20;stroke-miterlimit:10;}
	.st9{fill:#00C900;}
</style>
<path class="st0" d="M102.8,374.4h20.8v-40.8c0-29.5,34.2-61.9,63.9-61.9H275c24.3,0,43.7-14.1,43.7-39.1v-85.2
	c0-24.2-20-42.4-43.7-46.5c-29.3-4.9-61.2-4.7-87.4,0.1l0,0c-37,6.7-43.7,20.7-43.7,46.5V193h87.5l0,0H111
	c-25.5,0-47.7,15.6-54.7,45.3c-8,34-8.4,55.3,0,90.8C62.5,355.5,77.4,374.4,102.8,374.4z"/>
<polygon class="st1" points="339.3,206.7 339.3,206.7 339.3,206.6 "/>
<path class="st2" d="M369.9,369.6c26,0,41.9-10.3,50.9-39.1c9.3-29.7,8.9-58.2,0-96.2c-6.4-27.4-18.6-48-44.5-48h-28.4v42
	c0,32.6-25.9,65.2-55.6,65.2h-89.1c-24.4,0-49.7,17-49.7,42.9v78.1c0,25.7,21,40.8,44.5,48.1c28.2,8.8,55.3,10.4,89.1,0
	c22.4-6.9,44.5-20.8,44.5-48.1l-3.2-39.3h-89l0,0L369.9,369.6z"/>
<path class="st1" d="M269.3,397.7c9.2,0,16.8,8.1,16.8,18c0,10-7.5,18.1-16.8,18.1c-9.2,0-16.8-8.1-16.8-18.1
	C252.6,405.7,260.1,397.7,269.3,397.7z M207.3,133.1c9.2,0,16.8,8.1,16.8,18c0,10-7.5,18.1-16.8,18.1c-9.2,0-16.8-8.1-16.8-18.1
	C190.6,141.1,198.1,133.1,207.3,133.1z"/>
<path class="st3" d="M153.5,386.8c-6.9,0-12.4-5.6-12.4-12.4v-42.3c0.5-27.9,18.2-44.5,47.3-44.5h90.8c37.8,0,60.4-21.3,60.4-56.9
	v-42.3c0-6.9,5.6-12.4,12.4-12.4c6.9,0,12.4,5.6,12.4,12.4v41.3c0,50.6-33.4,82.7-85.1,82.7h-90.8c-19.5,0-22.3,10-22.5,19.9v42.1
	C165.9,381.2,160.4,386.8,153.5,386.8z"/>
<path class="st3" d="M239,481.9c-16,0-32.3-1.3-47.8-3.8c-30.4-5.2-50.1-28.5-50.1-59.5v-86.5c0-6.9,5.6-12.4,12.4-12.4
	c6.9,0,12.4,5.6,12.4,12.4v86.5c0,18.9,11,32,29.3,35.1c28.7,4.7,60.3,4.6,86.5-0.2c15.5-2.6,25.2-6.6,29.8-12
	c3.7-4.4,5.3-11.3,5.3-22.9v-40h-68.3c-6.9,0-12.4-5.6-12.4-12.4s5.6-12.4,12.4-12.4h80.7c6.9,0,12.4,5.6,12.4,12.4v52.4
	c0,12-1.3,27.2-11.2,38.9c-8.6,10.2-22.7,16.7-44.4,20.4C271.5,480.5,255.4,481.9,239,481.9z"/>
<path class="st3" d="M363.4,378.5h-34.1c-6.9,0-12.4-5.6-12.4-12.4c0-6.9,5.6-12.4,12.4-12.4h34.1c23.9,0,35.3-8.5,40.5-30.2
	c8-33.4,8-52.8,0-86.5c-7.2-30.1-18.1-36.3-32.1-36.3h-7.4v28.9c0,6.9-5.6,12.9-12.4,12.9c-6.9,0-12.4-5.1-12.4-11.9v-42.3
	c0-6.9,5.6-12.4,12.4-12.4h19.9c38.5,0,50.5,31.6,56.2,55.3c8.9,37.3,8.9,61.1,0,98.1C420.1,362,398.4,378.5,363.4,378.5z
	 M269.3,444.7c-16,0-28.9-13-28.9-29c0-15.9,13-28.9,28.9-28.9s28.9,13,28.9,28.9C298.1,431.8,285.1,444.7,269.3,444.7z
	 M269.3,411.6c-2.3,0-4.1,1.8-4.1,4.1c0,4.5,8.2,4.6,8.3-0.1C273.4,413.5,271.5,411.6,269.3,411.6z M120.5,390.9
	c-6.8,0-12.4-5.6-12.4-12.4v-41.3c0-50.6,33.4-82.7,85.1-82.7H284c19.5,0,22.3-10.1,22.5-19.9v-42.1c0-6.9,5.6-12.4,12.4-12.4
	c6.9,0,12.4,5.6,12.4,12.4v42.3c-0.5,27.9-18.2,44.5-47.3,44.5h-90.8c-37.8,0-60.4,21.3-60.4,56.9v42.3
	C132.9,385.4,127.3,390.9,120.5,390.9z"/>
<g>
	<path class="st3" d="M318.9,247.3c-6.9,0-12.4-5.6-12.4-12.4v-86.5c0-18.9-11-32-29.3-35.1c-28.7-4.7-60.3-4.6-86.5,0.2
		c-15.5,2.7-25.2,6.6-29.8,12c-3.7,4.4-5.3,11.3-5.3,22.9v40h68.3c6.9,0,12.4,5.6,12.4,12.4s-5.6,12.4-12.4,12.4h-80.7
		c-6.9,0-12.4-5.6-12.4-12.4v-52.4c0-12,1.3-27.2,11.2-38.9c8.6-10.2,22.7-16.7,44.4-20.4c28.8-5.2,63.4-5.3,94.9-0.2
		c30.5,5.2,50.1,28.5,50.1,59.5v86.5C331.3,241.7,325.8,247.3,318.9,247.3z"/>
	<path class="st3" d="M120.5,390.9h-19.8c-38.5,0-50.5-31.5-56.2-55.3c-8.8-37.3-8.8-61.1,0-98.1c7.9-32.6,29.6-49.2,64.7-49.2h34.1
		c6.9,0,12.4,5.6,12.4,12.4s-5.6,12.4-12.4,12.4h-34.1c-23.9,0-35.3,8.5-40.5,30.2c-8,33.4-8,52.8,0,86.5
		c7.2,30.1,18.1,36.3,32.1,36.3h7.4v-28.9c0-6.9,5.6-12.9,12.4-12.9c6.8,0,12.4,5.1,12.4,11.9v42.3
		C132.9,385.4,127.3,390.9,120.5,390.9z M203.2,180.1c-16,0-28.9-13-28.9-28.9c0.1-16,13.1-29,28.9-29c16,0,28.9,13,28.9,29
		C232.1,167.1,219.1,180.1,203.2,180.1z M203.2,147c-2.3,0-4.1,1.9-4.1,4.3c0,4.3,8.3,4.4,8.3-0.1C207.3,149,205.4,147,203.2,147z"
		/>
</g>
<path class="st4" d="M743.8,221.4c0,0,64.6,92.6,63.7,138.7s40.8,4.1,40.8,4.1s13-39.7,13-39.2s-26.3-58.8-30.6-64.2
	c-4.3-5.5-40.4-44.5-43.4-55.9s-10.6-67.4-10.6-67.4l-38.3-35.6c0,0-28-18.7-31.5-11.2c-3.5,7.5-44.9,38.6-51.7,40.4
	s-18.2,38-18.2,50.1s0.2,51.5,0.2,51.5l-41.9,72.2l-8.7,47.3l23.8,15.6l20.4,22.7c0,0,24.1-32.9,24.5-35.3s2.3-26.4,4.5-36.3
	c2.1-9.8,3.5-35.2,3.5-35.2l2.9-37.2l-4-21.3l18,10.9L743.8,221.4z"/>
<path class="st5" d="M686.5,177.7c1.5-0.5,3.6-0.7,4.9,0c0.4,0.2,0.8,0.5,0.6,0.8v0.3h0.2c-0.4,1-2.3,0.8-3.2,1.2s-1.7,1.2-2.7,1.2
	c-0.9,0-2.5-0.3-2.7-1.2C683.5,178.9,685.4,177.7,686.5,177.7z M705.8,180c-0.9-0.3-2.8-0.2-3-1.2v-0.3c-0.2-0.3,0.2-0.7,0.4-0.8
	c1.5-0.7,3.6-0.5,5.1,0c1.1,0,3,1.2,2.8,2.3c-0.2,0.8-1.7,1-2.7,1S706.8,180.4,705.8,180z"/>
<path class="st1" d="M711.1,180c-0.2,0.8-1.7,1-2.7,1c-0.9,0-1.7-0.7-2.7-1c-0.9-0.3-2.8-0.2-3-1.2v-0.3c-0.2-0.3,0.2-0.7,0.4-0.8
	c1.5-0.7,3.6-0.5,5.1,0C709.4,177.7,711.3,178.9,711.1,180z"/>
<path class="st5" d="M892.2,419.6c-0.4,4.5-3.6,6.6-9.6,9.9c-11.9,6.6-33.3,11.7-46.9,26c-11.9,12.2-26.3,18.9-38.9,19.7
	s-23.6-3.3-30-14.9h-0.2c-4-6.6-2.3-17,1.1-27.9c3.4-11.1,8.1-22.3,8.9-31.4c0.6-11.7,1.3-22,3.6-29.9c2.5-7.8,6-13.2,12.3-16.4
	l0.9-0.3c0.6,9.9,6.4,20.5,16.8,22.8c11.2,2.1,27.4-5.6,34.2-12.7l4-0.2c6-0.2,11.2,0.2,16.2,4.5c4,3.3,5.9,8.8,7.6,14.5
	c1.7,6.6,3,12.9,7.8,17.5C889.3,409.5,892.4,415.8,892.2,419.6z M655.1,450.4v0.2c-1.1,12.2-9.3,18.9-21.5,21.3
	c-12.5,2.1-29.1,0-45.9-7.6c-18.3-8.9-40.4-7.8-54.4-10.1c-7.2-1-11.7-3.3-14-6.6c-2.1-3.3-2.1-9.9,2.5-20.3
	c2.3-5.6,0.6-12.6-0.6-18.5c-0.9-6.6-1.5-11.7,0.9-15.5c3-5.6,7.6-6.6,13-8.9c5.7-2.1,12.3-3.3,17.6-7.6v-0.2
	c4.9-4.5,8.5-9.9,12.8-13.9c3.6-3.3,7.2-5.5,12.7-5.5h0.2c0.9,0,1.9,0,3,0.2c7.2,1,13.4,5.6,19.5,12.4l17.4,27.6h0.2
	c4.5,8.8,14.4,17.7,22.7,27.1C649.5,434.4,655.9,443.1,655.1,450.4z"/>
<path class="st1" d="M692.2,178.9c-0.4,1-2.3,0.8-3.2,1.2s-1.7,1.2-2.7,1.2c-0.9,0-2.5-0.3-2.7-1.2c-0.2-1.2,1.7-2.3,2.8-2.3
	c1.5-0.5,3.6-0.7,4.9,0c0.4,0.2,0.8,0.5,0.6,0.8v0.3C692,178.9,692.2,178.9,692.2,178.9z"/>
<path class="st5" d="M742.8,203.4v2.3c-1.5-2.3-4.3-4.5-9.3-6.6c-10.2-3.3-14.5-4.5-20.2-7.8c-9.1-5.6-16.8-6.6-23.1-6.6
	c-3.4,0-6.4,0.5-9.1,1c-7.6,2.3-12.7,6.6-15.9,10.1h-0.2c-0.6,0.5-1.3,1-3.2,2.1c-2.1,1-5.1,3.3-9.3,5.6c-3.8,2.1-5.1,5.5-3.8,9.9
	c1.3,3.1,5.5,7.6,13.2,11.7c4.7,2.1,7.9,5.5,11.7,7.8c1.9,1.2,4,2.1,6.2,3.1c2.7,1,5.5,1.3,8.5,1.2c8.1,0.5,14-2.1,19.3-4.5
	c5.3-2.1,9.6-5.5,14.9-7.6c10.4-3.3,18-8.8,20.2-14.1C744.1,208.7,744.1,205.9,742.8,203.4z M695,192.5c-0.2-0.3,0.2-0.7,0.4-0.8
	c1.5-0.7,3.6-0.5,5.1,0c1.1,0,3,1.2,2.8,2.3c-0.2,0.8-1.7,1-2.7,1c-0.9,0-1.7-0.7-2.7-1c-0.9-0.3-2.8-0.2-3-1.2L695,192.5L695,192.5
	L695,192.5z M678.7,191.7c1.5-0.5,3.6-0.7,4.9,0c0.4,0.2,0.8,0.5,0.6,0.8v0.3h0.2c-0.4,1-2.3,0.8-3.2,1.2s-1.7,1.2-2.7,1.2
	c-0.9,0-2.5-0.3-2.7-1.2C675.7,192.8,677.6,191.7,678.7,191.7z M728.8,211.3c-3.6,2.1-8.9,5.5-13.2,7.8c-8.3,3.3-18.1,8.8-28.5,8.8
	c-10.2,0-18.5-4.5-24.4-7.8c-3-2.1-5.3-4.3-7.2-5.5c-3-2.1-2.7-5.5-1.3-5.5c2.1,0.2,2.5,2.1,3.8,3.3c1.9,1,4.2,3.3,6.8,5.5
	c5.7,3.3,13,7.8,22.3,7.8s20.2-4.5,26.8-7.8c3.6-2.1,8.5-5.5,12.3-7.8c3-2.1,2.8-4.3,5.5-4.3C734.1,206,732.2,208,728.8,211.3z"/>
<ellipse class="st1" cx="732.2" cy="165.7" rx="30" ry="28.3"/>
<path class="st3" d="M862,372.6c-0.5,0-1.1,0-1.6-0.1c-7.8-0.8-13.4-6.9-12.5-13.7c6.7-51.4-24.1-86.6-48.9-114.9
	c-11.4-13-21.2-24.2-25.2-35.1c-2.8-7.7-4.4-17.1-6.2-27.9c-6.9-41.4-14.8-70.7-54.1-70.7c-18.4,0-32.3,4.8-42.4,14.6
	c-16.6,16.1-23.2,46.3-18.6,85.1c3.5,29.8-10.1,48.1-23.3,65.8c-14,18.8-28.5,38.1-28.5,76.7c0,6.9-6.3,12.4-14.2,12.4
	s-14.2-5.6-14.2-12.4c0-45.9,18.3-70.5,33.1-90.2c12.4-16.6,21.3-28.6,18.8-49.7c-3.8-32.4-2.5-76.8,25.7-104.3
	C665.6,93,687,85.3,713.5,85.3c66.9,0,76.5,57.5,82.2,91.9c1.6,9.4,3,18.2,5.1,23.9c2.5,6.9,11,16.5,20.8,27.7
	c24.9,28.5,62.5,71.5,54.6,132.8C875.3,367.9,869.2,372.6,862,372.6z"/>
<g>
	<path class="st3" d="M761.5,201.7c-0.2-3.4-1.9-6.5-4.8-8.7c-0.6-0.5-6.1-4.6-15.5-8.7c-0.2-0.1-0.5-0.2-0.7-0.3
		c-6.8-2.9-15.5-5.8-25.9-7.5c-0.8-0.1-1.6-0.3-2.5-0.4c-4.9-0.7-10.2-1.1-15.8-1.1c-2.4,0-4.9,0.1-7.5,0.2c-1,0.1-2.1,0.1-3.1,0.2
		c-7.9,0.7-16.3,2.1-25.2,4.7c-0.5,0.1-1,0.3-1.5,0.4c-4.2,1.2-8.6,2.7-13,4.5c-2.6,1-5.2,2.1-7.8,3.3c-3.2,1.5-5.6,3.9-6.8,6.8
		c-0.1,0.3-0.3,0.7-0.4,1c-1,3.4-0.3,7,1.8,9.9c1.9,2.6,5.1,6.7,9.2,11.3c7.5,8.4,18.1,18.5,30,24.5c6.3,3.2,13,5.2,19.7,5.2
		c0.4,0,0.7,0,1.1,0c25.5-0.8,58.4-30.3,64.7-36.2c0.3-0.2,0.5-0.5,0.8-0.8C760.6,207.6,761.7,204.7,761.5,201.7z M691.9,222.2
		c-5.1-0.3-15.3-7.5-25.2-17.8c23-7,41.4-4.8,53.7-1c0.6,0.3,1.3,0.5,2,0.6c0.6,0.2,1.1,0.4,1.7,0.6
		C712.5,213.6,699,222,691.9,222.2z M720.5,203.4c0.6,0.3,1.3,0.5,2,0.6C721.8,203.8,721.2,203.6,720.5,203.4z"/>
	<path class="st5" d="M724.2,204.6c-11.7,9-25.2,17.3-32.2,17.6c-5.1-0.3-15.3-7.5-25.2-17.8c23-7,41.4-4.8,53.7-1
		c0.6,0.3,1.3,0.5,2,0.6C723.1,204.2,723.6,204.4,724.2,204.6z"/>
	<g>
		<path class="st3" d="M668,137.4c-16.6,0-30,12.7-30,28.3c0,7.5,3.1,14.2,8.1,19.3c3.5,3.6,8.1,6.3,13.1,7.8c1,0.3,2,0.5,3.1,0.7
			c1.8,0.3,3.7,0.5,5.7,0.5c7.3,0,14-2.4,19.2-6.5c0.6-0.5,1.2-1,1.7-1.5c3.3-3,5.9-6.8,7.5-11c1.1-2.9,1.7-6,1.7-9.3
			C698,150.1,684.6,137.4,668,137.4z M674.2,149.9c3.6-0.2,4.8,0.5,5.7,1.3c3,2.7,4.9,8.2,5.7,14.2c-2.6-2.7-6.5-4.4-10.9-4.4
			c-7.8,0-14.2,5.6-14.2,12.4v6.6c-0.5,0.1-1,0.3-1.5,0.4C659.7,168.3,662.9,150.9,674.2,149.9z"/>
		<path class="st1" d="M685.6,165.5c-2.6-2.7-6.5-4.4-10.9-4.4c-7.8,0-14.2,5.6-14.2,12.4v6.6c-0.5,0.1-1,0.3-1.5,0.4
			c0.6-12.2,3.8-29.5,15.1-30.5c3.6-0.2,4.8,0.5,5.7,1.3C682.9,153.9,684.7,159.5,685.6,165.5z"/>
		<g>
			<path class="st3" d="M764.8,203c-1.1,3-3.4,5.5-6.4,6.9c-2.1,1.1-4.6,1.7-7.2,1.7c-1.4,0-2.9-0.2-4.3-0.6
				c-5.8-1.6-9.5-6.1-9.9-11.1c-0.1-1.5,0.1-3,0.6-4.5c1.1-2.9,2-5.8,2.7-8.4c0.3-1,0.5-2,0.7-2.9c3.6-15.2,1.4-25.2-2.4-29.7
				c-1.7-2-4.7-4.6-12.6-4.6h-0.1c-2.1,0-3.4,0.5-4.7,1.7c-3.1,2.8-5.1,8.3-6.2,14.1c-0.3,1.5-0.5,3.1-0.7,4.6
				c0.1,2.2,0.1,4.3,0.1,6.1c-0.1,3.2-0.3,5.7-0.5,7c-0.2,1.9-0.9,3.7-2,5.2c-2.5,3.7-7.2,6.1-12.4,5.9c-4.5-0.1-8.5-2-11.1-5
				c-0.6-0.7-1.1-1.4-1.5-2.2c-0.7-1.4-1.2-2.9-1.3-4.5c-0.1-0.9-0.2-3.7-0.1-7.6c0-1.5,0.1-3.2,0.3-5c-0.1-1.6-0.3-3.3-0.5-4.9
				c-0.9-6-2.7-11.6-5.7-14.2c-0.9-0.8-2.1-1.5-5.7-1.3c-11.3,1-14.5,18.3-15.1,30.5c-0.2,4.4-0.1,8.2,0.1,10.2c0.1,0.7,0.1,1.4,0,2
				c-0.6,5.9-5.9,10.8-12.9,11.4c-6.7,0.3-13-3.4-14.8-9c-0.2-0.7-0.4-1.5-0.5-2.3c-2.3-23.6,3.5-64.3,40.4-67.5
				c11.1-1,21.1,1.9,28.6,8.5c0.3,0.3,0.6,0.5,0.9,0.8c6.7-6.2,15.5-9.5,25.3-9.5h0.2c19.1,0.1,29.8,8.1,35.4,14.8
				C773.4,153.9,774.5,176.4,764.8,203z"/>
			<path class="st3" d="M685.6,165.5c-2.6-2.7-6.5-4.4-10.9-4.4c-7.8,0-14.2,5.6-14.2,12.4v14c0,2.2,0.6,4.2,1.8,6
				c2.4,3.8,7.1,6.4,12.4,6.4c7,0,12.8-4.4,14-10.2c0.2-0.7,0.2-1.4,0.2-2.2v-14C688.9,170.4,687.6,167.7,685.6,165.5z M726.3,161.1
				c-4.5,0-8.5,1.8-11.1,4.7c-2,2.1-3.1,4.8-3.1,7.7v18.7c0,5,3.4,9.4,8.4,11.3c0.6,0.3,1.3,0.5,2,0.6c1.2,0.3,2.5,0.5,3.8,0.5
				c4.4,0,8.3-1.7,10.9-4.5c2.1-2.1,3.3-4.9,3.3-7.9v-18.7C740.5,166.6,734.1,161.1,726.3,161.1z M672.2,241.8
				c-1-11.1-2.2-19.1-2.6-22c-1-6.8-8.1-11.6-15.9-10.6c-5.5,0.6-9.8,3.9-11.5,8.2c-0.7,1.8-1,3.7-0.7,5.7
				c5.1,33.4,11.2,127-21.4,159.3c-5.2,5.1-4.6,13,1.2,17.5c2.7,2.1,6,3.1,9.4,3.1c3.9,0,7.8-1.4,10.6-4.2
				C678,362.4,675.8,281.7,672.2,241.8z"/>
			<path class="st1" d="M741.2,184.2c-0.2-0.1-0.5-0.2-0.7-0.3v-10.5c0-6.8-6.3-12.4-14.2-12.4c-4.5,0-8.5,1.8-11.1,4.7
				c1.1-5.8,3.1-11.3,6.2-14.1c1.3-1.3,2.6-1.7,4.7-1.7h0.1c7.9,0,10.9,2.7,12.6,4.6C742.6,159.1,744.8,169,741.2,184.2z"/>
		</g>
	</g>
</g>
<path class="st3" d="M798.3,372.6c-0.2,0-0.4,0-0.5,0c-7.8-0.2-13.9-6-13.6-12.8c3.4-79.9-61.1-135.3-61.8-135.8
	c-5.7-4.8-5.8-12.6-0.4-17.5c5.4-4.9,14.4-5,20-0.3c3,2.6,74.2,63.8,70.4,154.6C812.1,367.3,805.9,372.6,798.3,372.6z M640.1,478.9
	c-13.1,0-27.7-2.2-41-4.2c-9.1-1.4-18.2-2.8-26.8-3.6c-32.6-3-52.4-10.7-58.8-22.9c-3.7-7-2.8-14.8,2.6-21.7
	c5.7-7.3,4.9-8.3,1.2-13.4c-4.3-6-12.4-17.1-1.7-33l0,0c8.8-13,23.5-12.8,32.5-12.6c5.5,0.1,8.1,0,8.8-0.9l1.2-1.4
	c8.3-9.7,18.5-21.8,33.6-22.4c5.6-0.4,14,1.2,21.9,9.1c21.9,21.8,72.2,75.7,66.3,104.1C676,474,659.7,478.9,640.1,478.9z
	 M540.8,438.7c3.5,2,12.7,5.7,34.5,7.7c9.2,0.9,19,2.3,28.7,3.8c14,2.1,46.8,7.1,47.9,1.4c2.2-10.7-25.1-48.8-59.7-83.3
	c0,0-0.1,0-0.1-0.1c-3.3,2.2-8.4,8.2-11.4,11.7l-1.2,1.4c-9.5,11.2-23.5,10.8-32,10.9c-2.5,0-6.5-0.1-7.6,0.4l-12.2-6.2l12.2,6.3
	c-1.9,2.9-1.9,2.9,1.2,7.1C546.1,406.5,555.1,419,540.8,438.7z"/>
<path class="st3" d="M801.5,482.1c-7.1,0-14.2-1.3-21.5-4.3c0,0,0,0,0,0c-29.6-12.3-26-64.2-25-74.5c2-20.5,8.4-45.9,27.3-50.5
	c8-2,14.8-1.3,20.2,1.8c7.8,4.6,8.8,12.3,9.4,16.9c0.1,0.7,0.2,1.6,0.3,2.4c2.8-1.5,7.7-6.6,10.5-9.6c7.9-8.3,22.6-23.8,40.8-13.1
	c15.4,9,14.4,22.2,13.9,29.4c-0.6,7.6-0.6,8.1,9.7,10.7c15,3.8,18.8,12.7,19.7,17.6c3.4,18.5-22.1,36.9-37.5,46.1l-4,2.4
	C845.6,469.2,824,482.1,801.5,482.1z M792.2,455.5c14.4,6,31.9-3.5,56.9-18.5l4.1-2.4c14-8.4,21.3-15.8,24.2-19.8
	c-30.3-9-28.9-27-28.3-35.7c0.1-1.6,0.2-2.8,0.2-3.7c-1.6,1.6-3.4,3.5-4.8,5c-8.7,9.2-20.8,21.7-38.6,18.5
	c-10.6-1.9-16-7.2-18.8-12.6c-3.7,12.3-6.1,33.1-2.7,51.4C786.8,450.7,791.2,455,792.2,455.5L792.2,455.5z M792,375.8L792,375.8
	L792,375.8z"/>
<path class="st3" d="M716.5,459c-33.4,0-57.3-8.6-58.7-9.1c-7.2-2.7-10.6-10-7.6-16.2c3-6.3,11.3-9.2,18.5-6.6
	c0.5,0.2,45.5,16.1,94.8-0.2c7.3-2.4,15.5,0.8,18.3,7.2c2.8,6.4-0.9,13.6-8.3,16C753.2,456.8,733.5,459,716.5,459z"/>
<g>
	<polygon class="st1" points="415.8,898.6 415.8,898.6 415.7,898.6 415.7,898.6 	"/>
	<polygon class="st6" points="415.8,898.6 415.8,898.6 415.7,898.6 415.7,898.6 	"/>
	<path class="st6" d="M353.3,894.7c1.4,1.2,8.9,4.9,21.9,5.5c23.5,1,38.1-9,43.1-3.9c6.2,6.3-1.1,22.3-30.2,30
		c-6.4,2.9-41.5,8.3-51.3,2.8L353.3,894.7z M196.4,680.2c-12.2-3.5-34.1-9.4-57.2-10.2c-2.2-0.2-4.9-0.2-7.5-0.2
		c-2.4,0-5.1,0-7.5,0.2c-19.9,1-38.7,5.9-52,18.2c-13.5,12.3-22.3,32.5-20.5,65.9c0.4,6.2,3.6,24,9.2,45c5.5,21,13.1,45.7,22.4,67.6
		c9.4,21.7,20.7,40.8,31.4,49.9c5.3,4.5,10,6.2,14.3,6.1c4.1-0.2,9.4-2.3,15.6-8.7c9.2-9.4,27.1-26.9,36-35.8L196.4,680.2z"/>
	<path class="st6" d="M239.9,668.8L239.9,668.8c-21.9,0-37.7,6.2-49.6,15.5c-12.3,9.6-20.6,22.8-26,36.2c-6.4,16-9.3,41.8-9.3,41.8
		c6.6-3.5,15.3-7,24.6-9c9.3-2,19.4-2.6,28.4,0.7s16.6,11.1,19.3,22.8c13.1,56.6-4.1,77.7-10.4,93.5c-2,4.6-4.1,10.5-5.8,16.4
		c0,0,2-0.5,2.8-0.5c4.8,0,7.2,2.2,9.3,3c6.4,2.5,10.7,7.6,13.1,13.6c0.6,1.5,1.1,3.2,1.3,4.9c0.2,0.6,0.4,1.3,0.4,2
		c0,0.1,0,0.1,0,0.2c-0.3,8.7-0.5,18.9-0.5,29.1c0,12.2,0.3,24.2,0.8,36.3c0.4,9.1,1.1,17.2,1.8,23.6c0.8,6.5,1.9,11.4,2.6,13.1
		c2.4,5.6,5.8,12.9,12.1,17.8c6.3,4.9,15.3,8.2,31.7,4.9c14.2-2.9,23-6.8,28.9-12.6s9.4-13.7,11.6-25.9
		c3.4-18.3,10.1-71.2,10.9-81.1c-0.4-7.5,0.8-13.3,3.4-17.7c2.6-4.5,6.7-7.3,10.2-8.8c1.8-0.7,3.4-1.3,4.8-1.6
		c-1.7-2.2-3.1-4-4.7-5.8l0.2,0.2c-4.9-5.5-9-11.8-12.2-18.6l-0.2-0.5c-1.9-3.6-3.5-6.4-5.2-9.1l0.4,0.7c-2.5-4.2-5.6-9.4-8.9-15.2
		c-6.5-11.7-13.6-26-17.3-39.8c-3.7-13.8-4.2-28.1,5.2-38.2c8.4-9,23-12.7,45-10.6c-0.6-1.8-1-3.3-2.1-5.8
		c-5.4-11.6-11.8-21.7-19.5-30.8c-18.6-22.3-48.8-44.3-95.4-45L239.9,668.8L239.9,668.8L239.9,668.8L239.9,668.8z"/>
	<path class="st6" d="M271.9,672.5c12-2.1,24.4-8,37.2-8.2h3.2c33.2,0.2,73.1,7.8,102.4,37.5c3.8,3.8,6.6,12.9,6.4,25.4
		c-0.2,12.5-3.2,28.3-8.8,45.9c-10.5,32.3-28.2,79.9-55.6,114.3c-0.9-0.9,6.2-26.6,6.9-49.9c0.4-18.4-3.8-35.1-3.4-45.5
		c0.6-14.6,0.9-24.7-1.3-41.7L271.9,672.5z M223.4,889.5c0,0-20.4,20.9-34.5,27.2c-14.1,6.3-26,5.7-28.3,11
		c-2.3,5.3,3.6,14.7,40.1,11.2c29.2-2.8,37.3-22.2,37.3-22.2L223.4,889.5z M173.7,755c0,0,1.9,32,58.3,52.1L211.3,887
		c-33.6,0-63.7-29.9-58.1-63.9c2.4-15.6,2.8-30.1,2.4-41.4c-0.2-10.4-0.6-19.3-0.6-19.3L173.7,755z"/>
	<path class="st6" d="M311,807c32.3-9.5,48.7-35.3,48-56.6c0,0,6.2,110.2-4.6,124.7C343.6,889.7,311,807,311,807z"/>
	<path class="st1" d="M352.6,943.9c-8.9,0-17.3-1.1-22.9-4.2c-6.4-3.6-8.4-11.2-4.5-17c3.9-5.8,12.2-7.7,18.6-4.1
		c5.9,2.2,32.5-1.1,38.5-3.4c0.5-0.2,1.5-0.6,2-0.7c3.2-0.9,6-1.8,8.5-2.8c-5.4,0.8-11.5,1.3-18.3,1c-14.4-0.6-25.6-4.8-30.3-8.6
		c-5.6-4.5-6-12.4-1.1-17.5c4.8-4.9,12.8-5.5,18.4-1.5c0.9,0.4,5.6,2.5,14.3,2.9c9.9,0.4,18.1-1.5,24.7-3.1
		c8.8-2.1,19.8-4.8,27.8,3.4c5.2,5.3,6.8,12.7,4.5,20.2c-4.1,13.2-18.8,24-40.4,29.8C385.8,940.4,368.3,943.9,352.6,943.9z
		 M128.3,935c-8,0-15.7-3.2-23-9.4c-14.6-12.3-26.9-36.4-34.7-54.3c-8.4-20-16.5-44.6-22.9-69.3c-5.7-21.2-9.1-39.8-9.6-47.2
		c-1.9-33.5,6.3-58.8,24.4-75.3c14.2-13.1,34.6-20.5,60.8-21.8c5.3-0.3,11.9-0.3,16.9,0c23.1,0.9,45.4,6.5,60.2,10.7
		c7.1,2,11.1,9,8.9,15.5c-2.2,6.5-9.8,10.2-16.9,8.2c-8.5-2.4-31-8.8-53.8-9.7c-2.4-0.2-4.7-0.1-7-0.2c-2.1,0-4.4,0-6.5,0.1
		c-19.8,1-33.9,5.8-43.4,14.6c-12.5,11.4-18,30.4-16.6,56.5c0.3,5.2,3.2,21.9,8.8,42.7c6.2,23.8,13.9,47.2,21.8,66.1
		c9.2,21.3,19.7,38.2,27.9,45.2c2.7,2.3,4.3,2.8,4.6,2.8l0,0l0,0c-0.1,0,2.1-0.4,6-4.5c5.6-5.7,14.1-14.2,22.1-22l14-13.9
		c5.1-5.1,13.6-5.4,19.1-0.8c5.5,4.6,5.9,12.5,0.9,17.5l-14.2,14.1c-7.8,7.7-16.3,16.1-21.7,21.7c-7.8,8.1-16.2,12.4-25,12.8
		C129,935,128.7,935,128.3,935z"/>
	<path class="st1" d="M274.6,1048.8c-11.2,0-20.6-3.1-28.4-9.2c-8.3-6.5-12.7-15.1-15.9-22.7c-1.9-4.4-3.1-12.8-3.5-16.2
		c-0.8-6.6-1.5-15-1.9-24.5c-0.5-12.3-0.8-24.5-0.8-36.8c0-10,0.2-20,0.4-28.6c-0.1-0.4-0.2-0.7-0.2-1.1c-0.1-0.8-0.3-1.7-0.6-2.4
		c-0.7-1.8-2.4-5.1-5.6-6.3c-1.1-0.5-2.1-1-3.2-1.5c-4.7,1-9.7-0.4-13.1-3.6c-3.4-3.1-4.8-7.9-3.6-12.1c1.9-6.4,4.1-12.7,6.4-17.8
		c0.9-2.3,2.2-5,3.6-8c6.9-14.4,16.3-34.2,6.1-78.3c-1.6-7-5.6-11.9-11.1-13.9c-5.2-1.9-12-1.9-20.3-0.1c-9.6,2.1-17.3,5.7-21,7.7
		c-4.4,2.3-9.9,2.2-14.1-0.3c-4.3-2.5-6.6-7-6.1-11.7c0.1-1.1,3.1-27.6,10.1-44.9c7-17.5,17.1-31.3,29.9-41.4
		c15.7-12.2,35.3-18.5,58.3-18.5c0,0,0,0,0,0h2.1c42.7,0.6,79.3,17.9,106.1,49.9c8.5,10.2,15.5,21.1,21.2,33.5
		c1,2.3,1.6,3.9,2.1,5.5c1.3,4,0.6,9-2.2,12.2c-2.9,3.2-7,5.6-11.6,5.2c-16.7-1.6-28,0.5-33.3,6.3c-5,5.3-5.8,14.5-2.4,27.2
		c3.6,13.6,11,27.7,16.2,37.1c2.7,4.8,5.3,9.2,7.5,13l0.5,0.9c0,0.1,0.1,0.2,0.1,0.2c1.8,2.9,3.5,5.9,5.6,9.9
		c3,6.5,6.4,11.7,10.4,16.3c0.1,0.1,0.2,0.2,0.2,0.3c0,0,0,0,0,0l0,0c1.7,2,3.4,4,5.2,6.5c2.5,3.3,3,7.5,1.6,11.2
		c-1.5,3.8-4.8,6.6-9,7.7c-0.8,0.2-1.8,0.5-2.8,1c-1,0.4-2.8,1.4-4,3.4c-1.4,2.4-2,6.3-1.8,11.3c-0.9,12.2-7.7,65.4-11.1,83.7
		c-2.7,14.8-7.4,24.8-15.1,32.3c-8,7.8-19.1,12.8-35.9,16.2C284.3,1048.3,279.3,1048.8,274.6,1048.8z M251,905.3
		c0.4,1.5,0.7,3.1,0.7,4.8c-0.3,9.2-0.5,19.2-0.5,29.3c0,12,0.3,23.9,0.8,35.8c0.4,8.7,1,16.5,1.8,22.7c0.8,6.1,1.7,9.5,1.9,10.1
		c1.3,2.9,4,9.4,8.3,12.8c2,1.6,6.3,4.9,20,2.2c14.4-2.9,19.5-6.5,22-9c3.8-3.7,6.4-9.7,8.1-19.4c3.2-17.4,10-69.9,10.8-80
		c-0.5-8.2,1.1-16,4.9-22.6c1.8-3.1,4.2-6,7.1-8.4c-3.6-4.9-6.7-10.1-9.2-15.6c-1.4-2.7-2.6-4.9-3.9-7c-0.2-0.3-0.4-0.5-0.5-0.8h0
		c0,0,0-0.1-0.1-0.2h0c-0.4-0.6-0.6-1.3-0.9-1.9l-0.2,0.1c-2.3-3.9-5-8.5-7.8-13.5c-5.9-10.5-14.1-26.4-18.4-42.5
		c-5.6-21-2.9-37.5,8.1-49.2c8-8.6,19.6-13.6,34.7-15c-3.4-5.8-7.3-11.3-11.7-16.5c-21.9-26.2-50.4-39.7-84.9-40.2h-1.9
		c-16.7,0-30,4.1-40.9,12.6c-9.2,7.2-16.6,17.7-22,31.1c-2.1,5.1-3.7,11.5-5,17.6c1.6-0.4,3.1-0.8,4.6-1.1c13.8-3,26.1-2.6,36.5,1.2
		c14,5.1,24.1,16.7,27.6,31.8c12,52,0.1,76.9-7.8,93.4c-1.2,2.5-2.3,4.8-3.1,6.9c-0.4,1-0.9,2.1-1.3,3.2c0,0,0.1,0,0.1,0
		c9.4,3.7,16.7,11.1,20.6,20.8C250,901,250.6,903.1,251,905.3z M225.1,912.4C225.1,912.4,225.1,912.4,225.1,912.4
		C225.1,912.4,225.1,912.4,225.1,912.4z"/>
	<path class="st1" d="M211.3,899.3c-20.3,0-40-8.6-54.1-23.5c-14.3-15.2-20.6-35.1-17.4-54.6c2-12.6,2.7-25.8,2.3-39.1
		c-0.2-10.4-0.6-19.2-0.6-19.2c-0.3-6.8,5.5-12.6,13-12.9c7.6-0.5,13.8,5.1,14.1,11.9c0,0,0.4,9,0.6,19.6
		c0.5,14.6-0.4,29.2-2.6,43.3c-2.1,12.5,2,25.1,11.1,34.8c8.9,9.5,21.1,14.9,33.5,14.9c7.5,0,13.5,5.6,13.5,12.4
		S218.7,899.3,211.3,899.3z M356.7,899.9c-3.6,0-7.1-1.3-9.6-3.7c-5.3-4.9-4.4-9.6-2.4-19.8c1.8-9.3,4.9-25,5.4-39.2
		c0.2-9.3-0.9-18.6-1.9-26.7c-0.9-7.2-1.6-13.4-1.4-18.9c0.5-14.3,0.9-23.7-1.2-39.8c-0.9-6.8,4.4-13,11.8-13.8
		c7.4-0.9,14.2,4,15.1,10.8c2.4,18.1,2,28.8,1.4,43.6c-0.1,3.7,0.5,9,1.3,15.2c0.7,5.8,1.5,12.6,1.9,19.9
		c7.8-16.9,15.2-36.2,22.4-58.1c5.2-16.3,8.1-31,8.3-42.5c0.2-10.6-2.2-16-3-17c-21.6-21.8-52.6-33.1-92.3-33.3h-3.1
		c-5.6,0.1-12,2-18.9,4c-5.3,1.6-10.6,3.1-15.8,4c-7.3,1.2-14.4-3.2-15.8-9.9c-1.4-6.7,3.4-13.2,10.8-14.5c4.1-0.7,8.3-2,12.6-3.2
		c8-2.3,17.1-5,26.9-5.1h3.4c47.6,0.3,85.4,14.2,112.4,41.6c8.9,9.1,10,25.1,9.9,33.8c-0.2,13.7-3.5,30.7-9.4,49.2
		c-17,52.1-35.8,90.8-57.7,118.2c-2.3,2.9-6,4.8-9.9,5.1C357.3,899.9,357,899.9,356.7,899.9z"/>
	<path class="st1" d="M186.1,952c-17.5,0-29.1-3.7-35.3-11.1c-4.3-5.2-5.4-11.8-2.8-17.8c3.8-8.8,12.9-11.1,20.9-13.1
		c4.3-1.1,9.1-2.3,14.1-4.5c8.5-3.8,23.1-16.9,30.3-24.3c5-5.1,13.5-5.5,19.1-1c5.6,4.5,6,12.4,1.1,17.5c-2.2,2.2-20.7,21-36.3,28.9
		c0.7,0,1.4-0.1,2.1-0.2c19.7-1.9,25.6-13.2,26.1-14.5c2.9-6.2,10.7-9.3,17.6-6.7c6.8,2.5,10.2,9.5,7.6,15.8
		c-0.4,1.1-11.4,26.5-48.5,30.1C196.3,951.8,190.9,952,186.1,952z M232,819.5c-1.6,0-3.3-0.3-4.9-0.8c-63.8-22.7-66.8-61.3-66.9-63
		c-0.4-6.8,5.3-12.7,12.8-13.1c7.6-0.4,13.7,4.8,14.2,11.5c0.2,1.4,3.7,25.1,49.7,41.4c7,2.5,10.4,9.7,7.7,16
		C242.6,816.4,237.4,819.5,232,819.5z M311,819.5c-5.7,0-11-3.4-12.9-8.6c-2.3-6.5,1.6-13.5,8.8-15.6c26.1-7.7,39.2-28.1,38.6-44.4
		c-0.2-6.8,5.6-12.6,13.1-12.8c7.4,0.4,13.7,5.2,13.9,12c0.9,25.5-18.6,57.4-57.4,68.8C313.7,819.2,312.4,819.5,311,819.5z"/>
</g>
<linearGradient id="SVGID_1_" gradientUnits="userSpaceOnUse" x1="1.2418" y1="1133.5441" x2="1.3423" y2="1133.4319" gradientTransform="matrix(2500 0 0 -1643.5742 -2499 1863813.5)">
	<stop  offset="0" style="stop-color:#C9CBCE"/>
	<stop  offset="1" style="stop-color:#7B7A81"/>
</linearGradient>
<path class="st7" d="M741.7,959.1c-82.7,0-152.9-55-152.9-120.8s62-120.6,144.7-120.6c104.4,0,152.8,53.3,152.8,119.1
	S832.9,959.1,741.7,959.1 M708.7,652c-107.5,0-198.4,76.8-198.4,175.5c0,93.2,90.4,170.7,197.9,170.7s199-71.9,199-170.7
	S816.1,652,708.7,652"/>
<path class="st8" d="M674.5,758.6v290.2h66.1V936c16.5,0,26.4-4.8,37.2,21.5c16.5,37.6,37.2,91.4,37.2,91.4h78.5
	c0,0-49.6-107.5-53.7-112.9c-7.6-10.8-16.5-10.8-28.9-16.1c24.8-5.4,47.9-19,55.9-48.3c7-26.9,6.2-61.1-8.9-84
	c-13-18.1-26.4-29-59.5-29L674.5,758.6L674.5,758.6z M740.6,819H784c10.3,0,18.6,13.4,18.6,26.9c0,13.4-8.3,26.9-18.6,26.9h-43.4
	V819L740.6,819z"/>
<path class="st1" d="M985.4,855.2l16.7,10.3c0.1,1.6,0.3,3.3,0.5,4.9l-14.3,13.4c-2.3,2.2-2.4,5.8-0.2,8.1c0.6,0.6,1.3,1.1,2.1,1.4
	l0,0l18.3,6.8c0.5,1.6,0.9,3.2,1.4,4.7l-11.4,15.9c-1.9,2.6-1.3,6.1,1.3,8c0.7,0.5,1.6,0.9,2.5,1h0l19.3,3.1
	c0.7,1.5,1.5,2.9,2.3,4.3l-8.1,17.8c-1.3,2.9,0,6.3,2.8,7.6c0.8,0.3,1.6,0.5,2.4,0.5h0.2l19.5-0.7c1,1.3,2,2.5,3.1,3.8l-4.5,19.1
	c-0.7,3.1,1.2,6.1,4.2,6.9c0.9,0.2,1.8,0.2,2.7,0h0l19.1-4.5c1.2,1.1,2.5,2.1,3.8,3.1l-0.7,19.6v0.2c0,3.1,2.6,5.7,5.7,5.7
	c0.8,0,1.7-0.2,2.4-0.5l0,0l17.8-8.1c1.4,0.8,2.9,1.6,4.3,2.3l3.1,19.3c0.5,3.1,3.5,5.2,6.6,4.7c0.9-0.1,1.7-0.5,2.4-1l0,0
	l15.9-11.4c1.6,0.5,3.1,1,4.7,1.4l6.8,18.3c1.1,3,4.4,4.5,7.3,3.4c0.9-0.3,1.6-0.8,2.2-1.5l13.4-14.3c1.6,0.2,3.2,0.3,4.9,0.5
	l10.3,16.7c1,1.7,2.8,2.7,4.9,2.7c2,0,3.8-1,4.9-2.7l0,0l10.3-16.7c1.6-0.2,3.2-0.3,4.9-0.5l13.3,14.3c2.2,2.3,5.8,2.4,8.2,0.2
	c0.6-0.6,1.1-1.3,1.4-2.1l0,0l6.8-18.3c1.6-0.5,3.2-0.9,4.7-1.4l15.9,11.4c2.6,1.8,6.1,1.3,8-1.3c0.5-0.7,0.9-1.6,1-2.4v0l3.1-19.3
	c1.5-0.7,2.9-1.5,4.3-2.3l17.8,8.1c2.9,1.3,6.3,0,7.6-2.9c0.3-0.7,0.5-1.5,0.5-2.3v-0.2l-0.7-19.6c1.3-1,2.5-2,3.8-3.1l19.1,4.5
	c3.1,0.7,6.2-1.2,6.9-4.3c0.2-0.8,0.2-1.7,0-2.6v0l-4.5-19.1c1-1.2,2.1-2.5,3.1-3.8l19.6,0.7h0.3c3.1,0,5.7-2.5,5.7-5.7
	c0-0.8-0.2-1.7-0.6-2.5l0,0l-8.1-17.8c0.8-1.4,1.6-2.9,2.3-4.3l19.3-3.1c3.1-0.5,5.2-3.5,4.7-6.7c-0.2-0.8-0.5-1.7-1-2.4l0,0
	l-11.4-15.9l1.4-4.7l18.3-6.8c3-1.1,4.5-4.4,3.4-7.4c-0.3-0.8-0.8-1.6-1.4-2.2l-14.3-13.4c0.2-1.6,0.3-3.2,0.5-4.9l16.7-10.3
	c2.7-1.7,3.5-5.2,1.9-7.9c-0.5-0.8-1.1-1.4-1.9-1.9l0,0l0,0l-16.7-10.3c-0.1-1.6-0.3-3.2-0.4-4.9L1374,817c2.3-2.2,2.4-5.8,0.2-8.2
	c-0.6-0.6-1.3-1.1-2.1-1.4l0,0l-18.3-6.8c-0.4-1.6-0.9-3.2-1.4-4.8l11.4-15.8c1.8-2.6,1.2-6.2-1.3-8c-0.7-0.5-1.5-0.8-2.4-1h0
	l-19.3-3.1c-1-1.9-1.7-3.2-2.3-4.4l8.1-17.8c0.8-1.8,0.7-3.9-0.4-5.6c-1.1-1.7-3-2.6-5-2.5l-19.6,0.7c-1-1.3-2.1-2.6-3.2-3.9
	l0.1,0.1l4.5-19.1c0.7-3.1-1.2-6.2-4.3-6.9c-0.9-0.2-1.8-0.2-2.7,0h0l-19.1,4.5l-3.3-2.8l-0.4-0.3l0.7-19.6v-0.3
	c0-3.1-2.5-5.7-5.7-5.7c-0.8,0-1.7,0.2-2.4,0.5l0,0L1268,693c-1.4-0.8-2.9-1.6-4.3-2.3l-3.1-19.3c-0.5-3.1-3.5-5.2-6.7-4.7
	c-0.8,0.2-1.7,0.5-2.4,1l0,0l-15.9,11.4c-1.2-0.4-2.5-0.8-3.7-1.2l-1-0.2l-6.8-18.3c-1.2-3-4.5-4.4-7.5-3.3c-0.8,0.3-1.5,0.8-2,1.4
	l-13.3,14.3c-1.4-0.2-2.9-0.3-4.3-0.4l-0.6,0l-10.3-16.7c-1.7-2.7-5.3-3.5-8-1.8c-0.7,0.5-1.3,1.1-1.8,1.8l0,0l-10.3,16.7
	c-1.6,0.1-3.2,0.3-4.8,0.5l-13.4-14.3c-2.2-2.3-5.8-2.4-8.1-0.2c-0.6,0.6-1.1,1.3-1.4,2.1l0,0l-6.8,18.3c-1.6,0.5-3.1,0.9-4.7,1.4
	l-15.9-11.4c-2.6-1.8-6.2-1.2-8,1.4c-0.5,0.7-0.8,1.5-1,2.3v0l-3.1,19.3c-1.9,1-3.2,1.7-4.4,2.3l-17.8-8.1c-2.9-1.3-6.3,0-7.6,2.8
	c-0.3,0.8-0.5,1.6-0.5,2.4v0.2l0.7,19.6c-1.3,1-2.5,2-3.8,3.1l-19.1-4.5c-3.1-0.7-6.2,1.2-6.9,4.3c-0.2,0.9-0.2,1.8,0,2.6v0
	l4.5,19.1c-1,1.2-2.1,2.5-3.1,3.7l-19.6-0.7h-0.2c-3.2,0-5.7,2.6-5.7,5.7c0,0.8,0.2,1.7,0.5,2.4l0,0l8.1,17.8
	c-0.4,0.7-1.2,2.1-1.9,3.5l-0.4,0.8l-19.3,3.1c-3.1,0.5-5.2,3.5-4.7,6.7c0.2,0.8,0.5,1.7,1,2.4v0l11.4,15.9c-0.5,1.6-1,3.1-1.4,4.7
	l-18.3,6.8c-3,1.2-4.4,4.5-3.3,7.5c0.3,0.8,0.8,1.5,1.4,2l14.3,13.3c-0.2,1.4-0.3,2.9-0.4,4.3l0,0.5l-16.7,10.3
	c-2.7,1.6-3.6,5.1-2,7.8C984,854,984.6,854.7,985.4,855.2z M1095.8,983.1L1095.8,983.1c-6.4,1.4-12.8-2.6-14.1-9
	c-1.4-6.4,2.7-12.7,9-14.1l0.1,0c6.4-1.4,12.7,2.7,14.1,9C1106.2,975.5,1102.2,981.8,1095.8,983.1z M1265.3,983.7L1265.3,983.7
	L1265.3,983.7z M1267.8,984c-6.5,0.1-11.9-5.2-11.9-11.7c-0.1-6.5,5.2-11.9,11.7-11.9c0.9,0,1.8,0.1,2.8,0.3
	c6.4,1.5,10.3,7.8,8.9,14.2C1277.9,980.1,1273.2,983.9,1267.8,984z M1298,935c-4.3,5.8-8.7,11-13.4,15.8l-24.9-5.4l0,0
	c-5.8-1.2-11.5,2.4-12.8,8.2l0,0.1l-5.9,27.6c-18.8,8.5-39.2,12.9-59.8,12.9h-0.2c-21,0-41.8-4.6-60.9-13.5l-5.9-27.6
	c-1.2-5.8-6.9-9.5-12.8-8.3c0,0-0.1,0-0.1,0l0.1,0l-24.4,5.2c-4.4-4.5-8.5-9.4-12.3-14.5l-0.3-0.4h118.5c1.3,0,2.2-0.2,2.2-1.5v-42
	c0-1.2-0.9-1.5-2.2-1.5h-34.7v-26.6h37.5c3.4,0,18.3,1,23.1,20c1.5,5.8,4.8,24.9,7,31c2.2,6.8,11.3,20.5,21,20.5h59.1
	C1296.6,935.2,1297.3,935.2,1298,935L1298,935z M1148.3,824.5v-27.3h48.9c2.5,0,17.8,2.9,17.8,14.4c0,9.5-11.8,12.9-21.4,12.9
	H1148.3z M1310.3,801.3c2.1-6.2,8.8-9.5,15-7.4s9.5,8.8,7.4,15c-0.2,0.7-0.6,1.4-0.9,2c-3.2,5.7-10.4,7.7-16.1,4.5
	C1310.7,812.6,1308.4,806.7,1310.3,801.3z M1172.4,690.2L1172.4,690.2c4.7-4.5,12.1-4.3,16.6,0.3c2.1,2.2,3.3,5.2,3.3,8.2
	c0,3.2-1.3,6.3-3.7,8.5c-4.9,4.3-12.4,3.8-16.7-1.1C1168,701.6,1168.2,694.7,1172.4,690.2z M1153.3,706.6l0.9-0.2l18.1,19
	c4.1,4.3,10.9,4.5,15.2,0.4l0,0l20.3-19.4c41.6,7.9,77.7,33.4,98.9,70l0.4,0.7l-13.9,31.4c-2.4,5.4,0,11.7,5.4,14.2l0.1,0l26.8,11.9
	c0.5,4.8,0.7,9.5,0.7,14.4h0c0,3.6-0.1,7.2-0.4,10.8h-14.9c-1.5,0-2.1,1-2.1,2.5v6.8c0,16.1-9.1,19.6-17,20.5
	c-7.6,0.9-16-3.2-17-7.8c-4.5-25.1-11.9-30.5-23.7-39.8c14.6-9.3,29.8-22.9,29.8-41.2c0-19.7-13.5-32.2-22.8-38.3
	c-12.9-8.5-27.3-10.2-31.1-10.2h-153.9C1094.1,728.7,1122.3,712.7,1153.3,706.6z M1067.8,807.9L1067.8,807.9l-5.2-11.7h20.6v92.7
	h-41.5c-5.1-18-6.7-36.8-4.7-55.4l25.3-11.3C1067.8,819.8,1070.2,813.4,1067.8,807.9C1067.8,808,1067.8,808,1067.8,807.9z
	 M1040.1,794c4.7,0,8.7,2.7,10.6,6.6l0,0.1v0c2.9,5.8,0.6,12.9-5.2,15.8s-12.9,0.6-15.8-5.2c-0.2-0.3-0.3-0.6-0.4-1l0-0.1
	c-2.5-6,0.4-12.9,6.5-15.4C1037.1,794.3,1038.6,794,1040.1,794z"/>
<path class="st9" d="M1379.2,218c0-13.7-11-25.2-24.9-25.2h-346.8c-13.8,0-24.9,11.2-24.9,25.2v125.6c0,13.7,11,24.9,24.9,24.9
	h347.1c13.5,0,24.9-11.2,24.9-25.2V218H1379.2z M1372.9,343.3c0,10.2-8.2,18.9-18.6,18.9h-346.8c-10.4,0-18.6-8.3-18.6-18.9V218
	c0-10.5,8.2-18.9,18.6-18.9h346.8c10.1,0,18.6,8.3,18.6,18.9V343.3z M1073.9,221.5h-18.9v29.4c-3.2-0.6-5.3-1-8.2-1
	c-19.2,0-31.8,12.5-31.8,31.6c0,19.8,12.3,30,34.6,30c7.6,0,15.1-0.6,24.6-2.6v-87.6H1073.9z M1055.1,296c-3.2,0.3-4.7,0.6-6.6,0.6
	c-9.4,0-14.8-5.4-14.8-15.3c0-10.2,5.7-16,15.1-16c2.2,0,3.5,0.3,6.6,1V296H1055.1z M1083.4,221.5h18.9v19.2h-18.9V221.5z
	 M1083.4,288.3c0,16.3-0.6,22.4-3.2,27.8c-2.5,5.1-6.3,8.6-14.5,12.5l17.3,8.3c8.2-4.1,12.3-8,15.1-13.7c3.2-6.1,4.4-13.4,4.4-28.4
	v-44.4h-18.9v38H1083.4z M1138.5,249.9c-8.5,0-14.2,1.6-23.6,5.8v14.4c6.3-3.8,13.5-5.8,20.1-5.8c4.7,0,5,1.3,5,4.5v4.1
	c-18.9,1.9-31.2,8-31.2,21.1c0,12.1,6,17.6,21.4,17.6c7.6,0,19.2-1,25.5-1.9v-38c0-7.7,1.3-11.5-0.3-14.4
	C1152.6,252.5,1147.9,249.9,1138.5,249.9z M1140,297.9c-3.2,0.6-5,1-7.9,1c-5,0-7.9-1.6-7.9-5.4c0-4.8,6.3-6.7,15.7-8
	C1140,285.4,1140,297.9,1140,297.9z M1195.1,249.9c-9.1,0-17.3,1.3-29.9,4.1V311h18.9v-44.4c3.2-1,6.6-1.3,9.1-1.3
	c6.6,0,9.8,2.6,9.8,9.9V311h18.9v-36.8c0-9.3-1.9-13.7-5.7-17.9C1212.1,252.2,1204.6,249.9,1195.1,249.9z M1286.4,266.2l6.6-13.4
	c-8.8-1.9-16.1-2.6-23.9-2.6c-27.1,0-42.2,12.1-42.2,33.2c0,17.3,10.4,28.1,26.4,28.1c4.7,0,8.8-0.6,12-2.6v0.3
	c0,11.8-5.7,16.9-17.6,16.9c-6.9,0-13.8-1.6-20.1-5.1v17.3c6.3,2.6,12.9,3.5,20.1,3.5c14.2,0,24.9-4.5,30.5-13.7
	c4.1-6.1,6-13.7,6-29.7v-5.1l-0.6-7.7l-0.6-9.9l-1.3-8v-1.9C1287.9,266.2,1281.7,265.3,1286.4,266.2z M1265.9,293.7v1.3
	c-3.2,0.6-4.4,1.3-6.9,1.3c-8.2,0-12.6-5.4-12.6-14.7c0-6.7,2.2-12.1,6.6-14.7c2.8-1.9,6.9-3.8,10.7-3.8h2.2
	C1265.9,263.1,1265.9,293.7,1265.9,293.7z M1322.2,249.9c-18.9,0-30.5,12.1-30.5,32c0,18.9,11.3,30.7,29.9,30.7
	c18.6,0,30.5-12.1,30.5-32C1351.8,261.5,1340.5,249.9,1322.2,249.9z M1321.9,297.6c-7.2,0-11.3-6.1-11.3-16.3s4.1-16.3,11.6-16.3
	c6.9,0,11,6.1,11,16.3C1332.9,291.5,1328.9,297.6,1321.9,297.6z"/>
</svg>
