<?xml version="1.0" encoding="utf-8"?>
<!-- Generator: Adobe Illustrator 25.0.1, SVG Export Plug-In . SVG Version: 6.00 Build 0)  -->
<svg version="1.1" id="图层_1" xmlns="http://www.w3.org/2000/svg" xmlns:xlink="http://www.w3.org/1999/xlink" x="0px" y="0px"
	 viewBox="0 0 1417.32 1133.86" style="enable-background:new 0 0 1417.32 1133.86;" xml:space="preserve">
<style type="text/css">
	.st0{fill:#366389;}
	.st1{fill:#FFFFFF;}
	.st2{fill:#E9B636;}
	.st3{fill:#B4B3B3;}
	.st4{fill:#EEBB1A;}
	.st5{fill:#346187;}
	.st6{fill:url(#SVGID_1_);stroke:#FFFFFF;stroke-width:20;stroke-miterlimit:10;}
	.st7{fill:#2660A9;stroke:#FFFFFF;stroke-width:20;stroke-miterlimit:10;}
	.st8{fill:#00C900;}
</style>
<g>
	<path class="st0" d="M102.81,374.4h20.8v-40.81c0-29.52,34.22-61.86,63.94-61.86h87.44c24.31,0,43.73-14.14,43.73-39.06v-85.18
		c0-24.24-19.98-42.4-43.73-46.48c-29.31-4.94-61.17-4.68-87.44,0.08l0.02-0.02c-37.01,6.7-43.73,20.67-43.73,46.48v45.41h87.53l0,0
		H111c-25.47,0-47.74,15.64-54.69,45.33c-8.02,34.03-8.35,55.25,0,90.8C62.52,355.5,77.36,374.4,102.81,374.4z"/>
	<polygon class="st1" points="339.27,206.68 339.28,206.68 339.28,206.61 	"/>
	<path class="st2" d="M369.9,369.58c25.95,0,41.89-10.29,50.89-39.09c9.34-29.67,8.93-58.21,0-96.21
		c-6.42-27.37-18.59-48.02-44.54-48.02h-28.4v42.02c0,32.59-25.9,65.22-55.58,65.22h-89.06c-24.36,0-49.68,17-49.68,42.94v78.15
		c0,25.68,21.02,40.75,44.54,48.1c28.18,8.76,55.3,10.35,89.06,0c22.44-6.91,44.54-20.84,44.54-48.1l-3.22-39.29h-88.99l0,0
		L369.9,369.58z"/>
	<path class="st1" d="M269.28,397.72c9.24,0,16.75,8.07,16.75,17.99c0,10.02-7.51,18.07-16.75,18.07c-9.18,0-16.75-8.15-16.75-18.07
		C252.59,405.69,260.1,397.72,269.28,397.72z M207.26,133.14c9.24,0,16.75,8.07,16.75,17.99c0,10.02-7.51,18.07-16.75,18.07
		c-9.18,0-16.75-8.15-16.75-18.07C190.58,141.11,198.08,133.14,207.26,133.14z"/>
	<path class="st1" d="M153.53,386.81c-6.85,0-12.4-5.56-12.4-12.4v-42.33c0.5-27.93,18.18-44.48,47.28-44.48h90.79
		c37.79,0,60.35-21.27,60.35-56.88v-42.33c0-6.85,5.56-12.4,12.4-12.4c6.85,0,12.4,5.56,12.4,12.4v41.34
		c0,50.62-33.42,82.68-85.15,82.68h-90.79c-19.5,0-22.31,10.05-22.47,19.91v42.1C165.93,381.25,160.38,386.81,153.53,386.81z"/>
	<path class="st1" d="M239.02,481.89c-15.98,0-32.28-1.26-47.81-3.79c-30.45-5.16-50.08-28.53-50.08-59.55v-86.48
		c0-6.85,5.56-12.4,12.4-12.4c6.85,0,12.4,5.56,12.4,12.4v86.47c0,18.87,10.96,31.96,29.34,35.07c28.73,4.66,60.28,4.63,86.48-0.17
		c15.5-2.65,25.2-6.56,29.8-12.01c3.74-4.42,5.33-11.26,5.33-22.92v-40.02H248.6c-6.85,0-12.4-5.56-12.4-12.4s5.56-12.4,12.4-12.4
		h80.69c6.85,0,12.4,5.56,12.4,12.4v52.42c0,11.99-1.27,27.22-11.21,38.94c-8.63,10.19-22.74,16.69-44.4,20.39
		C271.51,480.55,255.44,481.89,239.02,481.89z"/>
	<path class="st1" d="M363.36,378.54H329.3c-6.85,0-12.4-5.56-12.4-12.4c0-6.85,5.56-12.4,12.4-12.4h34.07
		c23.91,0,35.28-8.47,40.53-30.2c7.99-33.39,7.99-52.78-0.02-86.5c-7.24-30.1-18.08-36.26-32.08-36.26h-7.44v28.94
		c0,6.85-5.56,12.9-12.4,12.9c-6.85,0-12.4-5.08-12.4-11.92v-42.32c0-6.85,5.56-12.4,12.4-12.4h19.85
		c38.45,0,50.49,31.55,56.21,55.3c8.85,37.31,8.85,61.12,0,98.08C420.12,361.99,398.37,378.54,363.36,378.54z M269.28,444.68
		c-15.96,0-28.94-13-28.94-28.97c0-15.94,12.98-28.91,28.94-28.91s28.94,12.96,28.94,28.91
		C298.06,431.75,285.07,444.68,269.28,444.68z M269.28,411.61c-2.28,0-4.13,1.84-4.13,4.1c0,4.5,8.22,4.56,8.27-0.12
		C273.41,413.45,271.55,411.61,269.28,411.61z M120.49,390.94c-6.85,0-12.4-5.56-12.4-12.4V337.2c0-50.62,33.42-82.68,85.15-82.68
		h90.79c19.5,0,22.31-10.05,22.47-19.89v-42.12c0-6.85,5.56-12.4,12.4-12.4c6.85,0,12.4,5.56,12.4,12.4v42.35
		c-0.5,27.93-18.18,44.47-47.28,44.47h-90.79c-37.79,0-60.35,21.27-60.35,56.88v42.33C132.89,385.38,127.34,390.94,120.49,390.94z"
		/>
	<g>
		<path class="st1" d="M318.91,247.26c-6.85,0-12.4-5.56-12.4-12.4v-86.5c0-18.87-10.96-31.96-29.34-35.07
			c-28.73-4.66-60.28-4.63-86.48,0.17c-15.5,2.65-25.2,6.56-29.82,11.99c-3.74,4.42-5.33,11.26-5.33,22.92v40.02h68.28
			c6.85,0,12.4,5.56,12.4,12.4s-5.56,12.4-12.4,12.4h-80.69c-6.85,0-12.4-5.56-12.4-12.4v-52.42c0-11.99,1.27-27.22,11.21-38.94
			c8.63-10.19,22.74-16.69,44.4-20.39c28.78-5.23,63.39-5.32,94.88-0.2c30.46,5.16,50.09,28.53,50.09,59.55v86.48
			C331.31,241.7,325.77,247.26,318.91,247.26z"/>
		<path class="st1" d="M120.49,390.94h-19.85c-38.45,0-50.49-31.55-56.21-55.3c-8.85-37.31-8.85-61.12,0-98.08
			c7.89-32.64,29.64-49.2,64.65-49.2h34.07c6.85,0,12.4,5.56,12.4,12.4s-5.56,12.4-12.4,12.4h-34.07c-23.91,0-35.28,8.47-40.53,30.2
			c-7.99,33.39-7.99,52.78,0.02,86.5c7.24,30.1,18.08,36.26,32.08,36.26h7.44V337.2c0-6.85,5.56-12.9,12.4-12.9
			c6.85,0,12.4,5.08,12.4,11.92v42.33C132.89,385.38,127.34,390.94,120.49,390.94z M203.16,180.1c-15.96,0-28.94-12.96-28.94-28.91
			c0.15-16.04,13.13-28.97,28.94-28.97c15.96,0,28.94,13,28.94,28.97C232.1,167.14,219.12,180.1,203.16,180.1z M203.16,147.03
			c-2.3,0-4.12,1.89-4.13,4.28c0,4.3,8.27,4.42,8.27-0.12C207.3,148.98,205.38,147.03,203.16,147.03z"/>
	</g>
</g>
<path class="st3" d="M743.81,221.41c0,0,64.58,92.56,63.71,138.74s40.8,4.07,40.8,4.07s12.95-39.68,12.96-39.19
	s-26.31-58.78-30.6-64.25c-4.29-5.47-40.37-44.53-43.39-55.89s-10.6-67.45-10.6-67.45l-38.31-35.63c0,0-27.95-18.67-31.45-11.18
	c-3.48,7.51-44.88,38.63-51.74,40.43s-18.22,38.01-18.18,50.12s0.17,51.47,0.17,51.47l-41.92,72.22l-8.71,47.31l23.76,15.63
	l20.43,22.72c0,0,24.08-32.9,24.47-35.32s2.34-26.44,4.5-36.28c2.12-9.82,3.5-35.24,3.5-35.24l2.93-37.2l-4.04-21.26l17.95,10.91
	L743.81,221.41z"/>
<path class="st4" d="M686.55,177.71c1.51-0.5,3.59-0.66,4.91,0c0.38,0.17,0.76,0.5,0.57,0.83v0.33h0.19
	c-0.38,0.99-2.27,0.83-3.21,1.16s-1.7,1.16-2.65,1.16c-0.94,0-2.46-0.33-2.65-1.16C683.53,178.87,685.42,177.71,686.55,177.71z
	 M705.83,180.03c-0.94-0.33-2.83-0.17-3.02-1.16v-0.33c-0.19-0.33,0.19-0.66,0.38-0.83c1.51-0.66,3.59-0.5,5.1,0
	c1.13,0,3.02,1.16,2.83,2.31c-0.19,0.83-1.7,0.99-2.65,0.99S706.77,180.36,705.83,180.03z"/>
<path class="st1" d="M711.12,180.03c-0.19,0.83-1.7,0.99-2.65,0.99c-0.94,0-1.7-0.66-2.65-0.99c-0.94-0.33-2.83-0.17-3.02-1.16
	v-0.33c-0.19-0.33,0.19-0.66,0.38-0.83c1.51-0.66,3.59-0.5,5.1,0C709.42,177.71,711.31,178.87,711.12,180.03z"/>
<path class="st4" d="M892.17,419.62c-0.38,4.46-3.59,6.61-9.64,9.92c-11.91,6.61-33.26,11.74-46.87,25.96
	c-11.91,12.24-26.27,18.85-38.93,19.68s-23.62-3.31-30.05-14.88h-0.19c-3.97-6.61-2.27-17.03,1.13-27.94
	c3.4-11.08,8.13-22.32,8.88-31.42c0.57-11.74,1.32-21.99,3.59-29.93c2.46-7.77,6.05-13.23,12.28-16.37l0.94-0.33
	c0.57,9.92,6.43,20.5,16.82,22.82c11.15,2.15,27.4-5.62,34.21-12.73l3.97-0.17c6.05-0.17,11.15,0.17,16.25,4.46
	c3.97,3.31,5.86,8.76,7.56,14.55c1.7,6.61,3.02,12.9,7.75,17.53C889.33,409.53,892.36,415.81,892.17,419.62z M655.14,450.42v0.17
	c-1.13,12.24-9.26,18.85-21.54,21.33c-12.47,2.15-29.1,0-45.92-7.61c-18.33-8.93-40.44-7.77-54.43-10.09
	c-7.18-0.99-11.72-3.31-13.98-6.61c-2.08-3.31-2.08-9.92,2.46-20.34c2.27-5.62,0.57-12.57-0.57-18.52
	c-0.94-6.61-1.51-11.74,0.94-15.54c3.02-5.62,7.56-6.61,13.04-8.93c5.67-2.15,12.28-3.31,17.58-7.61v-0.17
	c4.91-4.46,8.5-9.92,12.85-13.89c3.59-3.31,7.18-5.46,12.66-5.46h0.19c0.94,0,1.89,0,3.02,0.17c7.18,0.99,13.42,5.62,19.47,12.4
	l17.39,27.61h0.19c4.54,8.76,14.36,17.69,22.68,27.12C649.47,434.38,655.9,443.14,655.14,450.42z"/>
<path class="st1" d="M692.22,178.87c-0.38,0.99-2.27,0.83-3.21,1.16s-1.7,1.16-2.65,1.16c-0.94,0-2.46-0.33-2.65-1.16
	c-0.19-1.16,1.7-2.31,2.83-2.31c1.51-0.5,3.59-0.66,4.91,0c0.38,0.17,0.76,0.5,0.57,0.83v0.33
	C692.03,178.87,692.22,178.87,692.22,178.87z"/>
<path class="st4" d="M742.79,203.41v2.31c-1.51-2.31-4.35-4.46-9.26-6.61c-10.21-3.31-14.55-4.46-20.22-7.77
	c-9.07-5.62-16.82-6.61-23.06-6.61c-3.4,0-6.43,0.5-9.07,0.99c-7.56,2.31-12.66,6.61-15.87,10.09h-0.19
	c-0.57,0.5-1.32,0.99-3.21,2.15c-2.08,0.99-5.1,3.31-9.26,5.62c-3.78,2.15-5.1,5.46-3.78,9.92c1.32,3.14,5.48,7.61,13.23,11.74
	c4.72,2.15,7.94,5.46,11.72,7.77c1.89,1.16,3.97,2.15,6.24,3.14c2.65,0.99,5.48,1.32,8.5,1.16c8.13,0.5,13.98-2.15,19.28-4.46
	c5.29-2.15,9.64-5.46,14.93-7.61c10.39-3.31,17.95-8.76,20.22-14.05C744.12,208.7,744.12,205.89,742.79,203.41z M694.98,192.49
	c-0.19-0.33,0.19-0.66,0.38-0.83c1.51-0.66,3.59-0.5,5.1,0c1.13,0,3.02,1.16,2.83,2.31c-0.19,0.83-1.7,0.99-2.65,0.99
	c-0.94,0-1.7-0.66-2.65-0.99c-0.94-0.33-2.83-0.17-3.02-1.16v-0.32H694.98z M678.73,191.67c1.51-0.5,3.59-0.66,4.91,0
	c0.38,0.17,0.76,0.5,0.57,0.83v0.33h0.19c-0.38,0.99-2.27,0.83-3.21,1.16s-1.7,1.16-2.65,1.16c-0.94,0-2.46-0.33-2.65-1.16
	C675.7,192.83,677.59,191.67,678.73,191.67z M728.81,211.34c-3.59,2.15-8.88,5.46-13.23,7.77c-8.32,3.31-18.14,8.76-28.54,8.76
	c-10.21,0-18.52-4.46-24.38-7.77c-3.02-2.15-5.29-4.3-7.18-5.46c-3.02-2.15-2.65-5.46-1.32-5.46c2.08,0.17,2.46,2.15,3.78,3.31
	c1.89,0.99,4.16,3.31,6.8,5.46c5.67,3.31,13.04,7.77,22.3,7.77s20.22-4.46,26.84-7.77c3.59-2.15,8.5-5.46,12.28-7.77
	c3.02-2.15,2.83-4.3,5.48-4.3C734.1,206.05,732.21,208.04,728.81,211.34z"/>
<ellipse class="st1" cx="732.15" cy="165.71" rx="30.01" ry="28.26"/>
<path class="st1" d="M862.04,372.56c-0.53,0-1.08-0.03-1.63-0.08c-7.77-0.78-13.36-6.91-12.47-13.72
	c6.69-51.37-24.13-86.61-48.91-114.92c-11.38-13-21.2-24.22-25.23-35.14c-2.82-7.66-4.38-17.05-6.2-27.91
	c-6.88-41.42-14.8-70.7-54.14-70.7c-18.41,0-32.28,4.76-42.37,14.58c-16.59,16.09-23.21,46.31-18.62,85.09
	c3.53,29.83-10.11,48.1-23.28,65.79c-13.99,18.75-28.46,38.15-28.46,76.66c0,6.85-6.35,12.4-14.17,12.4s-14.17-5.56-14.17-12.4
	c0-45.87,18.33-70.47,33.07-90.21c12.36-16.58,21.32-28.59,18.82-49.67c-3.84-32.44-2.49-76.85,25.74-104.27
	c15.59-15.11,36.93-22.77,63.44-22.77c66.92,0,76.48,57.52,82.21,91.92c1.57,9.36,3.02,18.22,5.12,23.88
	c2.53,6.85,10.96,16.5,20.75,27.68c24.91,28.47,62.55,71.48,54.58,132.81C875.27,367.89,869.15,372.56,862.04,372.56z"/>
<g>
	<path class="st1" d="M720.49,203.42c0.64,0.26,1.31,0.48,2,0.64C721.84,203.84,721.18,203.63,720.49,203.42z M761.54,201.69
		c-0.19-3.35-1.91-6.48-4.78-8.71c-0.64-0.49-6.07-4.58-15.55-8.74c-0.24-0.1-0.49-0.21-0.74-0.32c-6.75-2.89-15.46-5.78-25.87-7.46
		c-0.81-0.13-1.63-0.26-2.47-0.37c-4.91-0.69-10.18-1.09-15.79-1.11c-2.42-0.01-4.9,0.06-7.45,0.21c-1.03,0.06-2.06,0.13-3.11,0.22
		c-7.88,0.66-16.31,2.13-25.23,4.65c-0.48,0.14-0.96,0.28-1.45,0.42c-4.24,1.25-8.59,2.74-13.04,4.5c-2.57,1.02-5.17,2.12-7.81,3.32
		c-3.16,1.45-5.58,3.88-6.8,6.78c-0.14,0.34-0.27,0.69-0.38,1.04c-1,3.39-0.34,6.98,1.83,9.92c1.91,2.58,5.09,6.68,9.24,11.31
		c7.49,8.38,18.13,18.48,30.04,24.48c6.31,3.18,12.99,5.2,19.74,5.2c0.38,0,0.74-0.02,1.11-0.05c25.49-0.84,58.36-30.32,64.69-36.21
		c0.27-0.25,0.52-0.51,0.76-0.78C760.62,207.64,761.71,204.71,761.54,201.69z M691.94,222.22c-5.08-0.31-15.34-7.55-25.17-17.79
		c23.02-6.99,41.39-4.77,53.72-1.01c0.64,0.26,1.31,0.48,2,0.64c0.57,0.19,1.13,0.38,1.67,0.58
		C712.45,213.62,698.97,221.97,691.94,222.22z"/>
	<path class="st4" d="M724.16,204.64c-11.71,8.98-25.19,17.33-32.22,17.58c-5.08-0.31-15.34-7.55-25.17-17.79
		c23.02-6.99,41.39-4.77,53.72-1.01c0.64,0.26,1.31,0.48,2,0.64C723.06,204.25,723.62,204.44,724.16,204.64z"/>
	<g>
		<path class="st1" d="M667.99,137.45c-16.57,0-30.01,12.65-30.01,28.26c0,7.46,3.07,14.24,8.08,19.27
			c3.54,3.59,8.06,6.3,13.14,7.76c1.02,0.29,2.05,0.53,3.11,0.72c1.84,0.34,3.74,0.51,5.68,0.51c7.29,0,13.97-2.44,19.17-6.51
			c0.6-0.48,1.18-0.97,1.73-1.48c3.33-3.03,5.91-6.79,7.45-11c1.08-2.9,1.66-6.02,1.66-9.27C698,150.1,684.56,137.45,667.99,137.45z
			 M674.15,149.95c3.56-0.17,4.8,0.53,5.71,1.32c3.05,2.67,4.85,8.23,5.71,14.23c-2.6-2.71-6.49-4.43-10.85-4.43
			c-7.82,0-14.17,5.55-14.17,12.4v6.59c-0.48,0.14-0.96,0.28-1.45,0.42C659.69,168.27,662.87,150.94,674.15,149.95z"/>
		<path d="M685.57,165.5c-2.6-2.71-6.49-4.43-10.85-4.43c-7.82,0-14.17,5.55-14.17,12.4v6.59c-0.48,0.14-0.96,0.28-1.45,0.42
			c0.59-12.21,3.77-29.54,15.05-30.53c3.56-0.17,4.8,0.53,5.71,1.32C682.91,153.94,684.71,159.5,685.57,165.5z"/>
		<g>
			<path class="st1" d="M764.84,203.05c-1.12,3.04-3.44,5.45-6.36,6.94c-2.15,1.11-4.62,1.72-7.16,1.72c-1.42,0-2.85-0.18-4.29-0.58
				c-5.76-1.59-9.52-6.1-9.86-11.06c-0.1-1.48,0.1-3,0.64-4.5c1.07-2.95,1.95-5.75,2.66-8.4c0.27-1,0.52-1.98,0.74-2.93
				c3.56-15.23,1.42-25.17-2.38-29.73c-1.66-1.97-4.74-4.6-12.59-4.63h-0.08c-2.1,0-3.4,0.46-4.74,1.72
				c-3.08,2.85-5.07,8.29-6.18,14.13c-0.3,1.53-0.54,3.09-0.72,4.64c0.11,2.22,0.12,4.27,0.08,6.09c-0.08,3.25-0.32,5.74-0.48,7.02
				c-0.21,1.91-0.91,3.68-1.99,5.23c-2.53,3.67-7.16,6.07-12.39,5.93c-4.53-0.08-8.54-2.01-11.07-4.98c-0.59-0.68-1.1-1.42-1.51-2.2
				c-0.73-1.37-1.18-2.87-1.29-4.46c-0.06-0.89-0.22-3.69-0.09-7.59c0.05-1.51,0.14-3.19,0.3-4.99c-0.1-1.64-0.27-3.29-0.51-4.92
				c-0.86-6-2.66-11.56-5.71-14.23c-0.91-0.79-2.15-1.49-5.71-1.32c-11.28,0.99-14.46,18.32-15.05,30.53
				c-0.22,4.41-0.1,8.15,0.1,10.21c0.07,0.69,0.06,1.38,0,2.05c-0.56,5.93-5.92,10.82-12.93,11.36c-6.69,0.32-12.98-3.44-14.82-9.02
				c-0.25-0.74-0.41-1.52-0.49-2.32c-2.32-23.58,3.55-64.32,40.39-67.53c11.06-1.03,21.13,1.93,28.59,8.5
				c0.3,0.26,0.59,0.53,0.89,0.81c6.69-6.2,15.46-9.47,25.34-9.47h0.21c19.09,0.08,29.77,8.1,35.36,14.83
				C773.42,153.92,774.53,176.36,764.84,203.05z"/>
			<path class="st1" d="M672.18,241.83c-1.02-11.15-2.16-19.12-2.61-22.05c-1.02-6.81-8.12-11.63-15.93-10.65
				c-5.48,0.64-9.8,3.94-11.5,8.22c-0.7,1.77-0.95,3.71-0.65,5.7c5.09,33.36,11.21,127-21.37,159.26
				c-5.18,5.13-4.63,12.98,1.25,17.51c2.68,2.08,6.02,3.11,9.37,3.11c3.92,0,7.83-1.42,10.63-4.19
				C678.02,362.43,675.85,281.74,672.18,241.83z M726.3,161.07c-4.48,0-8.47,1.82-11.06,4.66c-1.95,2.12-3.11,4.81-3.11,7.74v18.65
				c0,5.03,3.43,9.36,8.36,11.3c0.64,0.26,1.31,0.48,2,0.64c1.21,0.3,2.49,0.46,3.81,0.46c4.36,0,8.26-1.73,10.87-4.45
				c2.06-2.15,3.3-4.92,3.3-7.95v-18.65C740.47,166.63,734.12,161.07,726.3,161.07z M685.57,165.5c-2.6-2.71-6.49-4.43-10.85-4.43
				c-7.82,0-14.17,5.55-14.17,12.4v14c0,2.17,0.64,4.21,1.76,5.99c2.42,3.82,7.07,6.41,12.41,6.41c6.97,0,12.77-4.41,13.95-10.21
				c0.15-0.71,0.22-1.44,0.22-2.19v-14C688.89,170.44,687.64,167.66,685.57,165.5z"/>
			<path d="M741.21,184.24c-0.24-0.1-0.49-0.21-0.74-0.32v-10.45c0-6.84-6.35-12.4-14.17-12.4c-4.48,0-8.47,1.82-11.06,4.66
				c1.11-5.84,3.1-11.28,6.18-14.13c1.34-1.26,2.64-1.72,4.74-1.72h0.08c7.85,0.03,10.93,2.66,12.59,4.63
				C742.63,159.07,744.77,169.01,741.21,184.24z"/>
		</g>
	</g>
</g>
<path class="st1" d="M798.26,372.56c-0.19,0-0.38,0-0.53-0.02c-7.82-0.25-13.93-5.99-13.64-12.83
	c3.36-79.86-61.12-135.29-61.78-135.83c-5.65-4.76-5.8-12.62-0.38-17.54c5.44-4.91,14.42-5.04,20.05-0.33
	c3.04,2.56,74.25,63.77,70.42,154.6C812.13,367.3,805.86,372.56,798.26,372.56z M640.14,478.91c-13.12,0-27.72-2.22-41.03-4.22
	c-9.07-1.37-18.24-2.78-26.82-3.57c-32.58-3.03-52.37-10.7-58.83-22.9c-3.72-7.03-2.8-14.75,2.61-21.69
	c5.65-7.28,4.88-8.33,1.17-13.43c-4.33-5.95-12.4-17.06-1.68-33l0,0c8.79-13,23.49-12.75,32.51-12.65c5.52,0.12,8.07-0.02,8.79-0.88
	l1.17-1.39c8.26-9.72,18.5-21.81,33.56-22.35c5.56-0.35,13.98,1.21,21.9,9.14c21.9,21.83,72.19,75.71,66.26,104.1
	C676.03,473.98,659.73,478.91,640.14,478.91z M540.81,438.73c3.46,1.95,12.68,5.72,34.47,7.72c9.15,0.86,18.96,2.33,28.67,3.79
	c13.98,2.13,46.79,7.06,47.93,1.39c2.23-10.66-25.1-48.79-59.66-83.3c-0.04-0.02-0.06-0.05-0.08-0.07
	c-3.29,2.23-8.41,8.25-11.36,11.72l-1.19,1.42c-9.54,11.19-23.45,10.83-32.03,10.85c-2.55-0.03-6.48-0.12-7.6,0.35l-12.17-6.2
	l12.21,6.3c-1.93,2.86-1.93,2.86,1.17,7.09C546.06,406.55,555.09,418.97,540.81,438.73z"/>
<path class="st1" d="M801.49,482.13c-7.07,0-14.25-1.27-21.47-4.3c0,0,0,0-0.02,0c-29.56-12.33-25.99-64.24-24.97-74.51
	c2.02-20.5,8.41-45.93,27.27-50.55c8.05-1.95,14.84-1.34,20.16,1.82c7.84,4.65,8.81,12.32,9.37,16.9c0.09,0.69,0.21,1.59,0.34,2.36
	c2.82-1.54,7.69-6.65,10.47-9.56c7.9-8.32,22.58-23.76,40.84-13.15c15.4,8.95,14.42,22.24,13.87,29.37
	c-0.57,7.61-0.6,8.07,9.73,10.7c15.02,3.82,18.79,12.67,19.67,17.58c3.4,18.54-22.07,36.86-37.55,46.13l-4.03,2.41
	C845.6,469.17,824.02,482.13,801.49,482.13z M792.21,455.46c14.42,5.99,31.9-3.47,56.94-18.52l4.08-2.43
	c13.95-8.35,21.34-15.76,24.15-19.84c-30.29-9.03-28.93-26.95-28.29-35.72c0.13-1.62,0.21-2.81,0.21-3.72
	c-1.64,1.59-3.44,3.47-4.84,4.96c-8.73,9.18-20.79,21.69-38.61,18.49c-10.58-1.92-16.01-7.24-18.84-12.63
	c-3.7,12.32-6.14,33.07-2.7,51.39C786.81,450.68,791.17,455,792.21,455.46L792.21,455.46z M791.99,375.78L791.99,375.78
	L791.99,375.78z"/>
<path class="st1" d="M716.47,459.03c-33.43,0-57.26-8.58-58.74-9.13c-7.22-2.66-10.6-9.95-7.56-16.24
	c3.04-6.32,11.34-9.24,18.52-6.63c0.49,0.2,45.55,16.09,94.81-0.17c7.33-2.35,15.52,0.83,18.27,7.24
	c2.76,6.42-0.94,13.56-8.28,15.99C753.15,456.79,733.53,459.03,716.47,459.03z"/>
<g>
	<polygon class="st1" points="415.75,898.64 415.82,898.57 415.71,898.64 415.73,898.64 	"/>
	<polygon class="st5" points="415.75,898.64 415.82,898.57 415.71,898.64 415.73,898.64 	"/>
	<path class="st5" d="M353.34,894.7c1.41,1.16,8.91,4.91,21.88,5.47c23.52,1.03,38.1-9,43.15-3.87c6.24,6.35-1.1,22.27-30.25,29.98
		c-6.44,2.91-41.49,8.28-51.34,2.76L353.34,894.7z M196.35,680.16c-12.21-3.47-34.13-9.36-57.24-10.22
		c-2.25-0.18-4.89-0.18-7.5-0.18c-2.44,0-5.07,0-7.52,0.18c-19.91,1.03-38.69,5.9-52.04,18.24c-13.53,12.34-22.35,32.49-20.47,65.86
		c0.38,6.25,3.57,23.98,9.2,45.01c5.45,21.03,13.15,45.71,22.35,67.6c9.4,21.73,20.67,40.84,31.37,49.87
		c5.27,4.51,9.96,6.25,14.29,6.09c4.13-0.18,9.4-2.27,15.59-8.68c9.2-9.39,27.13-26.92,35.97-35.78L196.35,680.16z"/>
	<path class="st5" d="M239.91,668.85v-0.03c-21.93,0.05-37.66,6.25-49.61,15.56c-12.3,9.61-20.56,22.77-25.98,36.23
		c-6.44,15.99-9.27,41.8-9.27,41.8c6.62-3.47,15.33-6.95,24.64-8.96c9.33-2.02,19.36-2.63,28.45,0.68s16.61,11.08,19.34,22.85
		c13.06,56.6-4.06,77.65-10.37,93.53c-2,4.56-4.09,10.45-5.84,16.44c0,0,2-0.45,2.81-0.45c4.82,0.03,7.23,2.2,9.31,3.03
		c6.35,2.46,10.71,7.64,13.06,13.56c0.61,1.55,1.06,3.21,1.32,4.94c0.23,0.6,0.38,1.29,0.38,2c0,0.07,0,0.13,0,0.21
		c-0.31,8.68-0.49,18.88-0.49,29.14c0,12.15,0.27,24.24,0.76,36.28c0.43,9.14,1.05,17.23,1.82,23.61c0.79,6.5,1.93,11.41,2.65,13.08
		c2.38,5.56,5.84,12.85,12.12,17.79c6.28,4.94,15.28,8.23,31.71,4.94c14.25-2.86,23.05-6.85,28.93-12.57s9.36-13.68,11.62-25.86
		c3.36-18.26,10.12-71.17,10.93-81.13c-0.38-7.51,0.81-13.28,3.37-17.68c2.63-4.51,6.71-7.28,10.25-8.78
		c1.77-0.74,3.41-1.26,4.76-1.62c-1.66-2.2-3.14-4.05-4.67-5.84l0.16,0.2c-4.85-5.49-9.02-11.81-12.16-18.6l-0.2-0.5
		c-1.89-3.64-3.48-6.38-5.16-9.08l0.4,0.68c-2.47-4.17-5.59-9.39-8.86-15.25c-6.53-11.72-13.64-25.95-17.34-39.8
		c-3.68-13.82-4.22-28.14,5.21-38.25c8.35-8.96,23.02-12.68,45.02-10.6c-0.65-1.82-1.05-3.34-2.13-5.77
		c-5.36-11.64-11.8-21.68-19.45-30.81c-18.65-22.27-48.81-44.33-95.37-45.04h-2.15v0.07H239.91z"/>
	<path class="st5" d="M271.93,672.54c12.03-2.08,24.42-7.99,37.2-8.17h3.19c33.25,0.18,73.07,7.82,102.39,37.54
		c3.75,3.82,6.58,12.87,6.39,25.37c-0.2,12.5-3.19,28.33-8.82,45.87c-10.52,32.33-28.18,79.94-55.61,114.35
		c-0.94-0.88,6.21-26.59,6.94-49.87c0.38-18.42-3.75-35.11-3.37-45.52c0.56-14.6,0.94-24.67-1.32-41.7L271.93,672.54z
		 M223.39,889.54c0,0-20.4,20.9-34.51,27.17c-14.11,6.27-26.01,5.69-28.3,11.01c-2.29,5.31,3.57,14.7,40.1,11.15
		c29.24-2.84,37.27-22.16,37.27-22.16L223.39,889.54z M173.71,754.99c0,0,1.91,32.03,58.32,52.07l-20.74,79.9
		c-33.62,0-63.69-29.86-58.07-63.91c2.44-15.64,2.81-30.06,2.44-41.36c-0.18-10.43-0.56-19.3-0.56-19.3L173.71,754.99z"/>
	<path class="st5" d="M310.98,807.04c32.27-9.48,48.74-35.32,48.02-56.59c0,0,6.24,110.18-4.6,124.7
		C343.56,889.68,310.98,807.04,310.98,807.04z"/>
	<path class="st1" d="M352.56,943.88c-8.93,0-17.3-1.12-22.85-4.25c-6.37-3.57-8.37-11.21-4.47-17.05c3.9-5.85,12.21-7.69,18.6-4.1
		c5.88,2.18,32.52-1.12,38.49-3.39c0.47-0.18,1.53-0.58,2.04-0.71c3.23-0.86,6.04-1.79,8.46-2.78c-5.38,0.79-11.51,1.27-18.26,0.98
		c-14.41-0.63-25.58-4.78-30.27-8.62c-5.57-4.55-6.04-12.4-1.06-17.51c4.78-4.88,12.77-5.49,18.35-1.55
		c0.9,0.43,5.61,2.51,14.29,2.91c9.85,0.38,18.09-1.55,24.73-3.14c8.84-2.12,19.84-4.75,27.83,3.37c5.2,5.29,6.84,12.67,4.49,20.19
		c-4.09,13.15-18.81,23.99-40.42,29.85C385.79,940.36,368.31,943.88,352.56,943.88z M128.29,935.02c-8.01,0-15.73-3.16-23.04-9.44
		c-14.58-12.3-26.91-36.36-34.69-54.35c-8.41-20.01-16.54-44.56-22.93-69.3c-5.72-21.2-9.13-39.82-9.58-47.19
		c-1.88-33.49,6.33-58.82,24.44-75.34c14.16-13.1,34.63-20.46,60.83-21.84c5.32-0.35,11.91-0.33,16.87,0.02
		c23.09,0.88,45.44,6.55,60.18,10.73c7.14,2.03,11.13,8.98,8.91,15.53c-2.2,6.53-9.76,10.17-16.92,8.17
		c-8.5-2.41-31.01-8.8-53.81-9.67c-2.44-0.17-4.69-0.13-6.96-0.15c-2.09-0.05-4.42,0-6.53,0.13c-19.77,1.04-33.91,5.82-43.42,14.62
		c-12.48,11.38-18.04,30.38-16.56,56.49c0.31,5.18,3.25,21.88,8.84,42.7c6.15,23.78,13.91,47.19,21.83,66.09
		c9.2,21.3,19.66,38.23,27.92,45.21c2.72,2.35,4.28,2.83,4.55,2.83l0,0l0,0c-0.09,0,2.06-0.41,6.01-4.51
		c5.57-5.67,14.14-14.15,22.08-21.99l14.02-13.94c5.05-5.08,13.62-5.42,19.12-0.79c5.52,4.61,5.92,12.45,0.88,17.53l-14.18,14.06
		c-7.83,7.74-16.29,16.11-21.72,21.65c-7.81,8.09-16.23,12.42-25.02,12.78C129.04,935.02,128.67,935.02,128.29,935.02z"/>
	<path class="st1" d="M274.62,1048.82c-11.2,0-20.56-3.06-28.43-9.24c-8.26-6.53-12.68-15.13-15.91-22.67
		c-1.88-4.37-3.07-12.78-3.5-16.22c-0.81-6.63-1.46-15.01-1.89-24.47c-0.49-12.27-0.76-24.51-0.76-36.83c0-10,0.18-19.98,0.45-28.57
		c-0.09-0.36-0.16-0.74-0.22-1.11c-0.13-0.84-0.34-1.65-0.63-2.41c-0.72-1.79-2.44-5.09-5.63-6.33c-1.12-0.45-2.13-0.96-3.23-1.55
		c-4.67,1.04-9.72-0.41-13.08-3.56c-3.36-3.14-4.83-7.89-3.59-12.1c1.86-6.37,4.11-12.72,6.35-17.84c0.88-2.27,2.18-5.01,3.61-7.99
		c6.87-14.42,16.29-34.16,6.08-78.35c-1.61-6.95-5.56-11.89-11.09-13.91c-5.18-1.89-12.03-1.9-20.33-0.13
		c-9.56,2.07-17.26,5.69-21.02,7.66c-4.4,2.32-9.85,2.18-14.11-0.33c-4.26-2.55-6.6-7.03-6.1-11.67
		c0.13-1.11,3.08-27.58,10.05-44.88c7.02-17.45,17.08-31.35,29.91-41.37c15.69-12.22,35.32-18.45,58.34-18.5
		c0.02,0,0.02,0.03,0.04,0.03h2.13c42.72,0.64,79.32,17.91,106.1,49.89c8.53,10.17,15.46,21.13,21.18,33.52
		c1.05,2.3,1.57,3.9,2.11,5.49c1.33,3.97,0.65,9.03-2.24,12.24c-2.89,3.21-7,5.64-11.58,5.19c-16.72-1.6-27.98,0.53-33.34,6.32
		c-4.96,5.32-5.75,14.49-2.36,27.25c3.64,13.63,11,27.71,16.23,37.11c2.69,4.83,5.3,9.24,7.5,12.95l0.52,0.91
		c0.05,0.07,0.09,0.15,0.14,0.21c1.82,2.93,3.55,5.9,5.61,9.87c3.01,6.53,6.35,11.67,10.35,16.27c0.07,0.08,0.16,0.18,0.23,0.26
		c0,0.02,0.02,0.02,0.02,0.03l0,0c1.71,1.98,3.37,4.03,5.21,6.5c2.45,3.29,3.05,7.47,1.57,11.23c-1.48,3.77-4.83,6.63-9.02,7.72
		c-0.81,0.23-1.79,0.51-2.83,0.98c-0.99,0.41-2.83,1.41-3.97,3.36c-1.41,2.41-2.02,6.32-1.79,11.26
		c-0.9,12.15-7.72,65.37-11.09,83.74c-2.74,14.85-7.41,24.82-15.13,32.31c-7.99,7.79-19.07,12.77-35.86,16.17
		C284.28,1048.29,279.29,1048.82,274.62,1048.82z M250.99,905.29c0.43,1.52,0.67,3.11,0.67,4.75c-0.31,9.18-0.49,19.23-0.49,29.34
		c0,12.02,0.27,23.93,0.76,35.83c0.4,8.73,1.01,16.54,1.75,22.7c0.76,6.13,1.66,9.52,1.88,10.1c1.26,2.93,4.02,9.36,8.28,12.75
		c2.02,1.59,6.33,4.94,19.99,2.23c14.43-2.93,19.45-6.52,21.97-8.96c3.84-3.74,6.35-9.71,8.14-19.43
		c3.21-17.41,9.96-69.9,10.79-79.99c-0.49-8.15,1.12-16.04,4.92-22.57c1.82-3.13,4.22-5.97,7.07-8.4
		c-3.61-4.86-6.71-10.09-9.25-15.58c-1.39-2.74-2.63-4.93-3.88-6.98c-0.18-0.28-0.38-0.55-0.54-0.84h0.02
		c-0.02-0.05-0.05-0.1-0.09-0.15h-0.02c-0.36-0.61-0.65-1.26-0.88-1.92l-0.22,0.07c-2.27-3.87-4.98-8.45-7.81-13.48
		c-5.86-10.53-14.14-26.36-18.44-42.51c-5.57-20.98-2.85-37.54,8.08-49.24c7.96-8.57,19.57-13.59,34.67-15.05
		c-3.43-5.84-7.31-11.31-11.67-16.49c-21.9-26.16-50.44-39.69-84.87-40.22h-1.89c-16.67,0.02-30.03,4.12-40.86,12.57
		c-9.22,7.23-16.63,17.68-22.03,31.07c-2.07,5.13-3.73,11.49-5.03,17.61c1.55-0.41,3.08-0.78,4.62-1.11
		c13.76-2.98,26.05-2.58,36.51,1.21c14.03,5.11,24.1,16.7,27.6,31.82c12,51.99,0.09,76.93-7.77,93.43
		c-1.17,2.46-2.27,4.75-3.14,6.91c-0.45,1.03-0.9,2.12-1.33,3.22c0.04,0.02,0.07,0.03,0.11,0.05c9.4,3.74,16.69,11.08,20.56,20.8
		C249.99,900.95,250.59,903.1,250.99,905.29z M225.08,912.36c0,0.02,0,0.02,0,0.03C225.08,912.38,225.08,912.38,225.08,912.36z"/>
	<path class="st1" d="M211.26,899.35c-20.31,0-40.03-8.6-54.06-23.55c-14.29-15.23-20.62-35.14-17.39-54.64
		c1.97-12.58,2.74-25.78,2.29-39.11c-0.18-10.43-0.56-19.15-0.56-19.2c-0.29-6.85,5.52-12.62,12.99-12.87
		c7.58-0.48,13.76,5.06,14.05,11.91c0,0,0.38,9,0.58,19.6c0.49,14.58-0.38,29.22-2.58,43.31c-2.06,12.45,2,25.12,11.13,34.83
		c8.89,9.48,21.11,14.92,33.53,14.92c7.47,0,13.53,5.56,13.53,12.4S218.73,899.35,211.26,899.35z M356.66,899.91
		c-3.59,0-7.07-1.31-9.61-3.67c-5.29-4.89-4.37-9.57-2.35-19.81c1.84-9.33,4.92-24.97,5.38-39.17c0.18-9.34-0.94-18.57-1.93-26.69
		c-0.88-7.18-1.64-13.38-1.44-18.87c0.54-14.27,0.92-23.68-1.23-39.82c-0.9-6.8,4.38-12.96,11.8-13.79
		c7.41-0.86,14.16,4.02,15.06,10.81c2.38,18.06,1.97,28.77,1.41,43.64c-0.13,3.67,0.52,9.03,1.28,15.25
		c0.72,5.84,1.55,12.63,1.93,19.93c7.79-16.88,15.21-36.18,22.35-58.11c5.23-16.3,8.1-31.02,8.26-42.48
		c0.16-10.63-2.18-16.01-3.01-17.05c-21.56-21.83-52.65-33.09-92.3-33.3h-3.1c-5.61,0.08-12.05,1.97-18.87,3.97
		c-5.32,1.57-10.61,3.09-15.8,3.99c-7.31,1.22-14.41-3.16-15.8-9.89c-1.39-6.73,3.43-13.23,10.79-14.5
		c4.13-0.71,8.33-1.97,12.57-3.22c7.99-2.33,17.08-4.99,26.9-5.14h3.39c47.64,0.26,85.43,14.25,112.42,41.62
		c8.91,9.06,10.03,25.1,9.9,33.85c-0.2,13.71-3.45,30.71-9.38,49.23c-16.99,52.14-35.84,90.77-57.67,118.17
		c-2.33,2.94-5.95,4.78-9.9,5.06C357.34,899.89,357,899.91,356.66,899.91z"/>
	<path class="st1" d="M186.08,952.03c-17.52,0.02-29.11-3.65-35.28-11.08c-4.31-5.19-5.36-11.84-2.81-17.79
		c3.81-8.78,12.88-11.08,20.91-13.11c4.28-1.07,9.13-2.32,14.09-4.5c8.53-3.79,23.13-16.88,30.32-24.28c5-5.13,13.53-5.54,19.1-0.98
		c5.57,4.55,6.04,12.4,1.06,17.51c-2.16,2.22-20.67,20.95-36.29,28.91c0.69-0.05,1.37-0.12,2.07-0.2
		c19.73-1.92,25.56-13.18,26.14-14.45c2.9-6.22,10.73-9.29,17.57-6.73c6.82,2.53,10.25,9.48,7.61,15.78
		c-0.43,1.07-11.4,26.49-48.47,30.08C196.29,951.77,190.95,952.03,186.08,952.03z M232.03,819.45c-1.62,0-3.28-0.28-4.89-0.84
		c-63.82-22.65-66.85-61.32-66.94-62.95c-0.41-6.85,5.3-12.68,12.77-13.06c7.63-0.36,13.69,4.75,14.23,11.46
		c0.16,1.44,3.7,25.09,49.71,41.42c6.96,2.46,10.43,9.66,7.72,16.04C242.56,816.44,237.44,819.45,232.03,819.45z M310.98,819.45
		c-5.72,0-11.04-3.36-12.88-8.62c-2.27-6.53,1.64-13.49,8.75-15.58c26.1-7.67,39.18-28.13,38.64-44.4
		c-0.23-6.85,5.63-12.57,13.1-12.78c7.36,0.43,13.71,5.16,13.94,12.02c0.88,25.53-18.56,57.36-57.42,68.77
		C313.74,819.25,312.35,819.45,310.98,819.45z"/>
</g>
<linearGradient id="SVGID_1_" gradientUnits="userSpaceOnUse" x1="1.2418" y1="0.3142" x2="1.3423" y2="0.4264" gradientTransform="matrix(2500 0 0 1643.5742 -2499 233.2835)">
	<stop  offset="0" style="stop-color:#C9CBCE"/>
	<stop  offset="1" style="stop-color:#7B7A81"/>
</linearGradient>
<path class="st6" d="M741.73,959.13c-82.68,0-152.94-54.95-152.94-120.77s62-120.57,144.67-120.57
	c104.42,0,152.81,53.3,152.81,119.12S832.93,959.13,741.73,959.13 M708.66,651.97c-107.48,0-198.43,76.79-198.43,175.52
	c0,93.25,90.4,170.66,197.88,170.66s198.97-71.93,198.97-170.66S816.14,651.97,708.66,651.97"/>
<path class="st7" d="M674.47,758.57v290.24h66.11V935.95c16.53,0,26.37-4.79,37.18,21.5c16.53,37.62,37.18,91.37,37.18,91.37h78.5
	c0,0-49.58-107.5-53.71-112.87c-7.62-10.75-16.53-10.75-28.92-16.13c24.79-5.37,47.9-19.02,55.93-48.26
	c7.02-26.87,6.2-61.06-8.86-83.98c-13.04-18.14-26.42-29-59.47-29L674.47,758.57L674.47,758.57z M740.58,819.02h43.38
	c10.29,0,18.59,13.44,18.59,26.87c0,13.44-8.26,26.88-18.59,26.88h-43.38V819.02L740.58,819.02z"/>
<path class="st1" d="M985.42,855.21l16.67,10.34c0.13,1.62,0.3,3.26,0.46,4.86l-14.32,13.36c-2.31,2.17-2.42,5.8-0.25,8.11
	c0.59,0.63,1.32,1.12,2.13,1.43l0.03,0.02l18.29,6.85c0.45,1.59,0.94,3.16,1.44,4.73l-11.41,15.86c-1.86,2.56-1.29,6.14,1.27,7.99
	c0.73,0.53,1.58,0.88,2.47,1.02h0.03l19.28,3.13c0.74,1.46,1.52,2.89,2.33,4.33l-8.12,17.81c-1.32,2.87-0.05,6.27,2.82,7.58
	c0.75,0.34,1.56,0.52,2.39,0.52h0.23l19.55-0.69c1.03,1.27,2.03,2.53,3.09,3.77l-4.46,19.1c-0.73,3.06,1.16,6.14,4.22,6.88
	c0.89,0.21,1.82,0.21,2.71-0.01h-0.03l19.07-4.48c1.24,1.06,2.5,2.07,3.77,3.08l-0.68,19.6v0.25c0,3.14,2.56,5.68,5.7,5.68
	c0.84,0,1.68-0.19,2.44-0.55l-0.03,0.02l17.79-8.1c1.44,0.81,2.88,1.57,4.33,2.33l3.14,19.3c0.53,3.13,3.49,5.25,6.63,4.72
	c0.86-0.14,1.68-0.48,2.39-0.99l-0.02,0.02l15.86-11.43c1.57,0.5,3.13,0.99,4.71,1.44l6.85,18.31c1.08,2.96,4.36,4.48,7.32,3.4
	c0.86-0.31,1.62-0.83,2.24-1.5l13.36-14.32c1.6,0.18,3.22,0.33,4.86,0.48l10.32,16.67c1.03,1.67,2.81,2.73,4.86,2.73
	c1.97,0,3.81-1.01,4.86-2.68l0.02-0.02l10.32-16.67c1.62-0.15,3.24-0.3,4.86-0.48l13.34,14.32c2.2,2.31,5.85,2.4,8.16,0.2
	c0.61-0.58,1.09-1.3,1.4-2.09l0.02-0.03l6.85-18.31c1.59-0.45,3.16-0.94,4.71-1.44l15.86,11.43c2.56,1.85,6.14,1.27,7.99-1.3
	c0.52-0.72,0.87-1.56,1.01-2.44v-0.03l3.14-19.3c1.46-0.74,2.89-1.54,4.33-2.33l17.79,8.1c2.9,1.3,6.31,0,7.6-2.91
	c0.33-0.74,0.5-1.53,0.5-2.34v-0.17l-0.69-19.6c1.27-1.01,2.53-2.03,3.75-3.08l19.07,4.5c3.1,0.71,6.19-1.22,6.9-4.32
	c0.2-0.85,0.2-1.74,0-2.59v0.03l-4.48-19.1c1.04-1.24,2.08-2.5,3.08-3.77l19.58,0.69h0.26c3.14,0,5.69-2.54,5.7-5.68
	c0-0.85-0.19-1.69-0.55-2.46l0.02,0.03l-8.1-17.81c0.79-1.44,1.57-2.88,2.33-4.33l19.28-3.13c3.14-0.54,5.25-3.53,4.7-6.67
	c-0.15-0.85-0.48-1.66-0.98-2.36l0.02,0.02l-11.41-15.86l1.44-4.73l18.29-6.85c2.97-1.11,4.48-4.42,3.37-7.38
	c-0.31-0.83-0.8-1.57-1.45-2.17l-14.32-13.36c0.17-1.6,0.33-3.24,0.46-4.86l16.65-10.32c2.69-1.65,3.53-5.18,1.88-7.87
	c-0.47-0.76-1.1-1.4-1.86-1.87l-0.02-0.02l-0.03,0.05l-16.65-10.32c-0.14-1.63-0.29-3.25-0.45-4.88l14.3-13.33
	c2.31-2.2,2.4-5.85,0.2-8.16c-0.58-0.61-1.3-1.09-2.09-1.4l-0.03-0.03l-18.29-6.85c-0.44-1.6-0.92-3.18-1.42-4.76l11.39-15.83
	c1.84-2.58,1.25-6.16-1.33-8.01c-0.71-0.51-1.52-0.84-2.38-0.99H1360l-19.28-3.13c-0.96-1.9-1.65-3.16-2.32-4.37l8.09-17.78
	c0.84-1.8,0.67-3.91-0.45-5.56c-1.11-1.65-2.99-2.61-4.98-2.55l-19.58,0.68c-1.04-1.32-2.11-2.62-3.21-3.89l0.12,0.13l4.5-19.08
	c0.73-3.08-1.18-6.17-4.27-6.9c-0.88-0.21-1.79-0.2-2.66,0.01h0.03l-19.07,4.5l-3.32-2.76l-0.43-0.33l0.69-19.6v-0.26
	c0-3.14-2.54-5.69-5.68-5.7c-0.85,0-1.69,0.19-2.45,0.55l0.03-0.02l-17.79,8.12c-1.44-0.79-2.88-1.57-4.33-2.33l-3.14-19.31
	c-0.54-3.14-3.53-5.25-6.67-4.7c-0.85,0.15-1.66,0.48-2.36,0.98l0.02-0.02l-15.87,11.43c-1.23-0.44-2.48-0.83-3.74-1.17l-0.99-0.25
	l-6.85-18.31c-1.17-2.98-4.53-4.44-7.5-3.28c-0.77,0.3-1.46,0.76-2.04,1.36l-13.34,14.35c-1.43-0.17-2.86-0.31-4.3-0.43l-0.55-0.03
	l-10.32-16.67c-1.71-2.69-5.27-3.49-7.96-1.79c-0.71,0.45-1.32,1.06-1.78,1.77l-0.02,0.02l-10.32,16.67
	c-1.6,0.13-3.24,0.3-4.85,0.46l-13.36-14.34c-2.17-2.31-5.8-2.42-8.11-0.25c-0.63,0.59-1.12,1.32-1.43,2.13l-0.02,0.03l-6.85,18.31
	c-1.59,0.45-3.14,0.94-4.71,1.42l-15.86-11.43c-2.59-1.84-6.18-1.22-8.02,1.37c-0.49,0.7-0.83,1.49-0.97,2.34v0.03l-3.14,19.31
	c-1.9,0.96-3.16,1.65-4.37,2.32l-17.78-8.12c-2.87-1.32-6.27-0.05-7.58,2.82c-0.34,0.75-0.52,1.56-0.52,2.39v0.21l0.69,19.6
	c-1.28,1.01-2.53,2.05-3.77,3.11l-19.07-4.51c-3.1-0.72-6.19,1.22-6.9,4.31c-0.2,0.86-0.2,1.76,0.01,2.62v-0.02l4.48,19.08
	c-1.04,1.22-2.08,2.48-3.08,3.74l-19.6-0.68h-0.21c-3.16,0-5.72,2.56-5.73,5.72c0,0.84,0.18,1.66,0.53,2.42l-0.02-0.03l8.12,17.81
	c-0.4,0.66-1.17,2.08-1.92,3.51l-0.4,0.83l-19.3,3.13c-3.14,0.54-5.25,3.53-4.7,6.67c0.15,0.85,0.48,1.66,0.98,2.36v-0.02
	l11.41,15.86c-0.5,1.57-0.98,3.13-1.44,4.73l-18.29,6.85c-2.98,1.17-4.44,4.53-3.28,7.5c0.3,0.77,0.76,1.46,1.36,2.04l14.32,13.35
	c-0.17,1.43-0.31,2.86-0.43,4.3l-0.03,0.55l-16.65,10.32c-2.7,1.61-3.59,5.1-1.98,7.8C983.96,854.05,984.62,854.72,985.42,855.21z
	 M1095.8,983.14l-0.08,0.02c-6.37,1.39-12.67-2.65-14.06-9.03c-1.39-6.37,2.65-12.67,9.03-14.06l0.08-0.02
	c6.37-1.39,12.67,2.65,14.06,9.03C1106.22,975.45,1102.18,981.75,1095.8,983.14z M1265.26,983.7l0.05,0.02L1265.26,983.7z
	 M1267.76,983.96c-6.53,0.07-11.88-5.17-11.94-11.7c-0.07-6.53,5.17-11.88,11.7-11.94c0.93-0.01,1.85,0.09,2.75,0.3
	c6.37,1.45,10.35,7.79,8.89,14.16C1277.95,980.11,1273.23,983.91,1267.76,983.96z M1297.99,935.01c-4.3,5.82-8.7,10.96-13.43,15.76
	l-24.92-5.36l0.02,0.02c-5.78-1.25-11.49,2.42-12.75,8.2l-0.02,0.07l-5.9,27.6c-18.8,8.53-39.2,12.93-59.84,12.9h-0.21
	c-21.04,0.01-41.83-4.59-60.9-13.48l-5.9-27.58c-1.24-5.81-6.95-9.51-12.76-8.27c-0.03,0.01-0.05,0.01-0.08,0.02l0.07-0.02
	L1077,950.1c-4.42-4.55-8.53-9.38-12.32-14.47l-0.26-0.38h118.51c1.34,0,2.25-0.23,2.25-1.46v-41.95c0-1.22-0.89-1.46-2.25-1.46
	h-34.68v-26.59h37.5c3.41,0,18.29,0.98,23.05,19.99c1.49,5.84,4.75,24.89,6.99,30.99c2.23,6.83,11.29,20.49,20.97,20.49h59.07
	c0.75-0.01,1.5-0.09,2.23-0.23L1297.99,935.01z M1148.3,824.5v-27.32h48.95c2.53,0,17.84,2.93,17.84,14.39
	c0,9.51-11.76,12.93-21.41,12.93H1148.3z M1310.26,801.3c2.08-6.19,8.79-9.52,14.98-7.44s9.52,8.79,7.44,14.98
	c-0.24,0.71-0.55,1.4-0.92,2.05c-3.22,5.68-10.43,7.68-16.11,4.47C1310.71,812.57,1308.45,806.67,1310.26,801.3z M1172.4,690.24
	v0.03c4.67-4.51,12.11-4.38,16.62,0.29c2.13,2.21,3.32,5.16,3.3,8.23c0,3.22-1.32,6.31-3.65,8.53c-4.91,4.29-12.37,3.78-16.66-1.13
	C1167.98,701.58,1168.15,694.65,1172.4,690.24z M1153.31,706.61l0.93-0.15l18.14,19.05c4.1,4.3,10.9,4.46,15.2,0.36l0,0l20.29-19.43
	c41.59,7.86,77.7,33.43,98.92,70.05l0.36,0.71l-13.89,31.4c-2.38,5.4,0.02,11.71,5.39,14.16l0.07,0.03l26.76,11.89
	c0.46,4.76,0.71,9.54,0.71,14.42h0.03c0,3.62-0.13,7.21-0.4,10.77h-14.88c-1.49,0-2.1,0.98-2.1,2.45v6.83
	c0,16.09-9.08,19.6-17.02,20.49c-7.57,0.86-15.96-3.16-17-7.81c-4.46-25.12-11.91-30.49-23.65-39.75
	c14.58-9.26,29.75-22.94,29.75-41.23c0-19.74-13.54-32.2-22.77-38.3c-12.95-8.55-27.27-10.25-31.14-10.25H1073.1
	C1094.13,728.72,1122.3,712.67,1153.31,706.61z M1067.77,807.93l0.03,0.07l-5.23-11.81h20.55v92.69h-41.47
	c-5.13-17.99-6.71-36.8-4.66-55.4l25.33-11.26c5.44-2.41,7.89-8.77,5.48-14.2C1067.8,807.98,1067.79,807.96,1067.77,807.93z
	 M1040.13,794.02c4.65,0,8.66,2.7,10.6,6.61l0.03,0.07v0.02c2.93,5.83,0.58,12.92-5.25,15.85s-12.92,0.58-15.85-5.25
	c-0.16-0.32-0.3-0.64-0.43-0.97l-0.03-0.08c-2.46-6.04,0.45-12.93,6.49-15.39C1037.09,794.32,1038.6,794.02,1040.13,794.02z"/>
<path class="st8" d="M1379.21,218c0-13.74-11.01-25.24-24.86-25.24h-346.81c-13.85,0-24.86,11.18-24.86,25.24v125.58
	c0,13.74,11.01,24.92,24.86,24.92h347.13c13.53,0,24.86-11.18,24.86-25.24V218L1379.21,218z M1372.92,343.26
	c0,10.23-8.18,18.85-18.57,18.85h-346.81c-10.39,0-18.57-8.31-18.57-18.85V218c0-10.54,8.18-18.85,18.57-18.85h346.81
	c10.07,0,18.57,8.31,18.57,18.85V343.26z M1073.94,221.51h-18.88v29.4c-3.15-0.64-5.35-0.96-8.18-0.96
	c-19.2,0-31.79,12.46-31.79,31.63c0,19.81,12.27,30.04,34.62,30.04c7.55,0,15.11-0.64,24.55-2.56v-87.55H1073.94z M1055.06,295.97
	c-3.15,0.32-4.72,0.64-6.61,0.64c-9.44,0-14.79-5.43-14.79-15.34c0-10.23,5.66-15.98,15.11-15.98c2.2,0,3.46,0.32,6.61,0.96v29.72
	H1055.06z M1083.38,221.51h18.88v19.17h-18.88V221.51z M1083.38,288.3c0,16.3-0.63,22.37-3.15,27.8
	c-2.52,5.11-6.29,8.63-14.48,12.46l17.31,8.31c8.18-4.15,12.27-7.99,15.11-13.74c3.15-6.07,4.41-13.42,4.41-28.44v-44.42h-18.88
	v38.03H1083.38z M1138.46,249.95c-8.5,0-14.16,1.6-23.6,5.75v14.38c6.29-3.83,13.53-5.75,20.14-5.75c4.72,0,5.04,1.28,5.04,4.47
	v4.15c-18.88,1.92-31.16,7.99-31.16,21.09c0,12.14,5.98,17.57,21.4,17.57c7.55,0,19.2-0.96,25.49-1.92v-38.03
	c0-7.67,1.26-11.5-0.31-14.38C1152.62,252.51,1147.9,249.95,1138.46,249.95z M1140.03,297.89c-3.15,0.64-5.04,0.96-7.87,0.96
	c-5.04,0-7.87-1.6-7.87-5.43c0-4.79,6.29-6.71,15.74-7.99C1140.03,285.42,1140.03,297.89,1140.03,297.89z M1195.11,249.95
	c-9.13,0-17.31,1.28-29.9,4.15v56.88h18.88v-44.42c3.15-0.96,6.61-1.28,9.13-1.28c6.61,0,9.76,2.56,9.76,9.91v35.79h18.88v-36.75
	c0-9.27-1.89-13.74-5.66-17.89C1212.1,252.19,1204.55,249.95,1195.11,249.95z M1286.37,266.25l6.61-13.42
	c-8.81-1.92-16.05-2.56-23.92-2.56c-27.07,0-42.17,12.14-42.17,33.23c0,17.26,10.39,28.12,26.44,28.12c4.72,0,8.81-0.64,11.96-2.56
	v0.32c0,11.82-5.66,16.94-17.62,16.94c-6.92,0-13.85-1.6-20.14-5.11v17.26c6.29,2.56,12.9,3.51,20.14,3.51
	c14.16,0,24.86-4.47,30.53-13.74c4.09-6.07,5.98-13.74,5.98-29.72v-5.11l-0.63-7.67l-0.63-9.91l-1.26-7.99v-1.92
	C1287.95,266.25,1281.65,265.29,1286.37,266.25z M1265.92,293.73v1.28c-3.15,0.64-4.41,1.28-6.92,1.28
	c-8.18,0-12.59-5.43-12.59-14.7c0-6.71,2.2-12.14,6.61-14.7c2.83-1.92,6.92-3.83,10.7-3.83h2.2
	C1265.92,263.06,1265.92,293.73,1265.92,293.73z M1322.25,249.95c-18.88,0-30.53,12.14-30.53,31.95c0,18.85,11.33,30.68,29.9,30.68
	c18.57,0,30.53-12.14,30.53-31.95C1351.83,261.46,1340.5,249.95,1322.25,249.95z M1321.94,297.57c-7.24,0-11.33-6.07-11.33-16.3
	s4.09-16.3,11.64-16.3c6.92,0,11.01,6.07,11.01,16.3C1332.95,291.49,1328.86,297.57,1321.94,297.57z"/>
</svg>
