<?xml version="1.0" encoding="utf-8"?>
<!-- Generator: Adobe Illustrator 25.0.1, SVG Export Plug-In . SVG Version: 6.00 Build 0)  -->
<svg version="1.1" id="图层_1" xmlns="http://www.w3.org/2000/svg" xmlns:xlink="http://www.w3.org/1999/xlink" x="0px" y="0px"
	 viewBox="0 0 1417.32 1133.86" style="enable-background:new 0 0 1417.32 1133.86;" xml:space="preserve">
<style type="text/css">
	.st0{fill:#FFFFFF;stroke:#000000;stroke-miterlimit:10;}
</style>
<g>
	<path class="st0" d="M344.45,243.78H127.99c-9.96,0-18.04,8.88-18.04,19.84c0,10.96,8.08,19.84,18.04,19.84h18.04v178.58
		c0,10.96,8.08,19.84,18.04,19.84s18.04-8.88,18.04-19.84V442.2h36.08v19.84c0,10.96,8.08,19.84,18.04,19.84
		c9.96,0,18.04-8.88,18.04-19.84V442.2h36.08v19.84c0,10.96,8.08,19.84,18.04,19.84c9.96,0,18.04-8.88,18.04-19.84V283.46h18.04
		c9.96,0,18.04-8.88,18.04-19.84C362.49,252.66,354.41,243.78,344.45,243.78z M218.18,402.52H182.1v-39.69h36.08V402.52z
		 M218.18,323.15H182.1v-39.69h36.08V323.15z M290.34,402.52h-36.08v-39.69h36.08V402.52z M290.34,323.15h-36.08v-39.69h36.08
		V323.15z M380.53,85.04H91.91c-29.89,0-54.12,26.65-54.12,59.53v158.74c0,32.88,24.23,59.53,54.12,59.53
		c9.96,0,18.04-8.88,18.04-19.84s-8.08-19.84-18.04-19.84s-18.04-8.88-18.04-19.84V144.57c0-10.96,8.08-19.84,18.04-19.84h288.62
		c9.96,0,18.04,8.88,18.04,19.84v158.74c0,10.96-8.08,19.84-18.04,19.84s-18.04,8.88-18.04,19.84s8.08,19.84,18.04,19.84
		c29.89,0,54.12-26.65,54.12-59.53V144.57C434.65,111.69,410.42,85.04,380.53,85.04z M272.3,204.09c9.96,0,18.04-8.88,18.04-19.84
		s-8.08-19.84-18.04-19.84h-72.15c-9.96,0-18.04,8.88-18.04,19.84s8.08,19.84,18.04,19.84H272.3z"/>
</g>
<g>
	<path class="st0" d="M865.75,430.13h-33.07c-4.57,0-8.27,3.86-8.27,8.63s3.7,8.63,8.27,8.63h33.07c4.57,0,8.27-3.86,8.27-8.63
		S870.31,430.13,865.75,430.13z M799.61,223.08H551.57c-4.57,0-8.27,3.86-8.27,8.63v207.05c0,4.76,3.7,8.63,8.27,8.63h248.03
		c4.57,0,8.27-3.86,8.27-8.63V231.71C807.87,226.94,804.17,223.08,799.61,223.08z M791.34,430.13h-231.5V240.34h231.5V430.13z
		 M865.75,395.62h-33.07c-4.57,0-8.27,3.86-8.27,8.63s3.7,8.63,8.27,8.63h33.07c4.57,0,8.27-3.86,8.27-8.63
		S870.31,395.62,865.75,395.62z M849.21,292.1c-13.7,0-24.8,11.59-24.8,25.88c0,14.29,11.1,25.88,24.8,25.88
		c13.7,0,24.8-11.59,24.8-25.88C874.02,303.68,862.91,292.1,849.21,292.1z M849.21,326.6c-4.57,0-8.27-3.86-8.27-8.63
		s3.7-8.63,8.27-8.63c4.57,0,8.27,3.86,8.27,8.63S853.78,326.6,849.21,326.6z M865.75,188.57h-81.52l71.43-89.38
		c2.92-3.67,2.44-9.11-1.07-12.16c-3.52-3.05-8.74-2.55-11.66,1.12l-76.39,95.59l-76.39-95.59c-2.92-3.67-8.14-4.17-11.66-1.12
		s-4,8.5-1.07,12.16l71.43,89.38H551.57c-22.83,0-41.34,19.31-41.34,43.13v207.05c0,23.82,18.51,43.13,41.34,43.13h314.17
		c22.83,0,41.34-19.31,41.34-43.13V231.71C907.09,207.89,888.58,188.57,865.75,188.57z M890.55,438.76
		c0,14.29-11.1,25.88-24.8,25.88H551.57c-13.7,0-24.8-11.59-24.8-25.88V231.71c0-14.29,11.1-25.88,24.8-25.88h314.17
		c13.7,0,24.8,11.59,24.8,25.88V438.76z M865.75,361.11h-33.07c-4.57,0-8.27,3.86-8.27,8.63s3.7,8.63,8.27,8.63h33.07
		c4.57,0,8.27-3.86,8.27-8.63S870.31,361.11,865.75,361.11z M849.21,223.08c-13.7,0-24.8,11.59-24.8,25.88s11.1,25.88,24.8,25.88
		c13.7,0,24.8-11.59,24.8-25.88S862.91,223.08,849.21,223.08z M849.21,257.59c-4.57,0-8.27-3.86-8.27-8.63s3.7-8.63,8.27-8.63
		c4.57,0,8.27,3.86,8.27,8.63S853.78,257.59,849.21,257.59z"/>
</g>
<g>
	<path class="st0" d="M1372.58,89.82c-4.38-3.76-10.17-5.42-15.87-4.56l-257.95,39.68c-9.71,1.47-16.88,9.82-16.87,19.64v205.36
		c-9.27-4.53-19.45-6.9-29.76-6.94c-38.36,0-69.45,31.09-69.45,69.44s31.09,69.44,69.45,69.44c38.36,0,69.45-31.09,69.45-69.44
		V260.86l218.27-33.53v82.94c-9.27-4.53-19.45-6.9-29.76-6.94c-38.36,0-69.45,31.09-69.45,69.44s31.09,69.44,69.45,69.44
		c38.36,0,69.45-31.09,69.45-69.44V104.9C1379.53,99.1,1376.99,93.59,1372.58,89.82z M1052.13,442.21
		c-16.44,0-29.76-13.32-29.76-29.76s13.33-29.76,29.76-29.76c16.44,0,29.76,13.32,29.76,29.76S1068.56,442.21,1052.13,442.21z
		 M1310.08,402.52c-16.44,0-29.76-13.32-29.76-29.76s13.33-29.76,29.76-29.76c16.44,0,29.76,13.32,29.76,29.76
		S1326.52,402.52,1310.08,402.52z M1339.84,187.05l-218.27,33.53v-59.52l218.27-32.94V187.05z"/>
</g>
<path class="st0" d="M832.29,737.81c-7.94,0-14.39,8.46-14.39,18.87v75.64H612.29v-75.64c0-10.41-6.45-18.87-14.39-18.87
	s-14.39,8.46-14.39,18.87v189.03c0,10.41,6.45,18.87,14.39,18.87s14.39-8.46,14.39-18.87v-75.64H817.9v75.64
	c0,10.41,6.45,18.87,14.39,18.87s14.39-8.46,14.39-18.87V756.69C846.68,746.27,840.23,737.81,832.29,737.81z M865.46,782.14
	c-7.94,0-14.39,8.46-14.39,18.87v100.37c0,10.41,6.45,18.87,14.39,18.87c7.94,0,14.39-8.46,14.39-18.87V801.01
	C879.85,790.6,873.4,782.14,865.46,782.14z M898.7,801.5c-7.94,0-14.39,8.46-14.39,18.87v61.65c0,10.41,6.45,18.87,14.39,18.87
	s14.39-8.46,14.39-18.87v-61.65C913.09,809.96,906.64,801.5,898.7,801.5z M530.62,801.5c-7.94,0-14.39,8.46-14.39,18.87v61.65
	c0,10.41,6.45,18.87,14.39,18.87s14.39-8.46,14.39-18.87v-61.65C545.01,809.96,538.56,801.5,530.62,801.5z M564.23,782.14
	c-7.94,0-14.39,8.46-14.39,18.87v100.37c0,10.41,6.45,18.87,14.39,18.87c7.94,0,14.39-8.46,14.39-18.87V801.01
	C578.62,790.6,572.23,782.14,564.23,782.14z"/>
<g>
	<path class="st0" d="M1074.02,800.28c-9.47,0-17.13,8.49-17.13,18.94c0,10.45,7.67,18.95,17.13,18.95c9.43,0,17.09-8.5,17.09-18.95
		C1091.12,808.77,1083.45,800.28,1074.02,800.28z"/>
	<path class="st0" d="M1367.37,843.44c-18.74-86.21-38.65-132.02-78.35-145.02c-8.65-2.83-16.01-3.93-22.81-3.93
		c-24.45,0-41.58,14.31-85.11,14.31c-43.56,0-60.68-14.31-85.09-14.31c-6.79,0-14.14,1.11-22.78,3.93
		c-39.75,13-59.65,58.81-78.36,145.02c-18.76,86.21-15.35,148.46,6.8,160.08c3.61,1.9,7.29,2.77,11.03,2.77
		c19.22,0,39.99-23.23,59.93-50.72c22.72-31.28,28.45-32.11,97.69-32.11h21.56c69.22,0,74.97,0.82,97.69,32.11
		c19.95,27.49,40.72,50.67,59.94,50.67c3.74,0,7.43-0.86,11.03-2.75C1382.69,991.89,1386.1,929.65,1367.37,843.44L1367.37,843.44z
		 M1074.12,857.83c-19.17,0-34.75-17.3-34.75-38.61c0-21.28,15.59-38.63,34.75-38.63c19.18,0,34.77,17.35,34.77,38.63
		C1108.89,840.53,1093.31,857.83,1074.12,857.83z M1227.23,838.84c-9.8,0-17.78-8.79-17.78-19.59c0-10.81,7.99-19.59,17.78-19.59
		c9.86,0,17.85,8.78,17.85,19.59C1245.08,830.05,1237.09,838.84,1227.23,838.84z M1266.13,881.57c-9.8,0-17.76-8.72-17.76-19.5
		c0-10.87,7.97-19.59,17.76-19.59c9.87,0,17.85,8.72,17.85,19.59C1283.98,872.85,1276,881.57,1266.13,881.57z M1266.13,796.01
		c-9.8,0-17.76-8.76-17.76-19.57c0-10.81,7.97-19.59,17.76-19.59c9.87,0,17.85,8.78,17.85,19.59
		C1283.98,787.25,1276,796.01,1266.13,796.01z M1305.07,838.84c-9.84,0-17.81-8.79-17.81-19.59c0-10.81,7.97-19.59,17.81-19.59
		c9.8,0,17.76,8.78,17.76,19.59C1322.83,830.05,1314.87,838.84,1305.07,838.84z"/>
</g>
<g>
	<path class="st0" d="M112.48,932.62c-26.1-24.63-43.28-59.07-53.95-97.16c-6.47-23.11-11.23-70.41-11.23-70.41
		c-0.55-5.44,3.21-10.32,8.39-10.89c0.33-0.04,0.67-0.06,1.01-0.05h321.26c5.21-0.01,9.44,4.41,9.45,9.88
		c0,0.29-0.01,0.58-0.04,0.87c0,0-1.06,13.1-2.83,28.92h40.67c5.22,0,9.45,4.44,9.45,9.92v16.38
		c-0.02,45.72-35.32,82.78-78.88,82.79h-1.98c-6.22,10.96-13.84,20.97-22.64,29.75h56.26c5.22,0,9.45,4.44,9.45,9.92
		c0,27.39-21.15,49.59-47.24,49.59H85.04c-26.09,0-47.24-22.2-47.24-49.59c0-5.48,4.23-9.92,9.45-9.92
		C47.24,932.62,112.48,932.62,112.48,932.62z M376.34,952.45H58.31c4,11.89,14.72,19.84,26.73,19.84h264.57
		C361.62,972.29,372.33,964.34,376.34,952.45z M299.84,932.62c34.29-21.21,50.35-58.33,60.05-101.56c3.49-15.56,6.3-42.28,7.7-57.13
		H67.28c1.71,14.72,5.13,40.79,9.37,55.93c12.04,42.98,32.74,81.21,67.6,102.76C144.26,932.62,299.84,932.62,299.84,932.62z
		 M382.06,813.61c-0.98,7.38-2.24,14.72-3.78,22c-3.73,16.62-8.4,32.37-14.48,46.86c29.75-4.23,51.94-30.88,51.94-62.39v-6.47
		C415.75,813.61,382.06,813.61,382.06,813.61z M202.65,715.48c0,0-13.67-8.01-13.67-30.8s13.67-30.8,13.67-30.8
		c4.74-2.3,6.8-8.19,4.62-13.16c-2.19-4.97-7.8-7.14-12.54-4.84c-0.18,0.09-0.35,0.18-0.52,0.27c0,0-24.12,11.81-24.12,48.54
		c0,36.73,24.12,48.54,24.12,48.54c4.59,2.6,10.32,0.8,12.8-4.02s0.76-10.84-3.83-13.44C203,715.66,202.83,715.57,202.65,715.48z
		 M240.44,693.54c0,0,24.12-11.81,24.12-48.54c0-36.73-24.12-48.54-24.12-48.54c-4.59-2.6-10.32-0.8-12.8,4.02
		s-0.76,10.84,3.83,13.44c0.17,0.1,0.35,0.19,0.52,0.27c0,0,13.67,8.01,13.67,30.8S232,675.81,232,675.81
		c-4.74,2.3-6.8,8.19-4.62,13.16s7.8,7.14,12.54,4.84C240.1,693.73,240.27,693.64,240.44,693.54z"/>
</g>
</svg>
